<svg version="1.1" viewBox="0.0 0.0 783.0 371.0" fill="none" stroke="none" stroke-linecap="square" stroke-miterlimit="10" width="783" height="371" xmlns:xlink="http://www.w3.org/1999/xlink" xmlns="http://www.w3.org/2000/svg"><path fill="#ffffff" d="M0 0L783.0 0L783.0 371.0L0 371.0L0 0Z" fill-rule="nonzero"/><clipPath id="id_0"><path d="M42.55 24.55L764.45 24.55L764.45 334.45L42.55 334.45L42.55 24.55Z" clip-rule="nonzero"/></clipPath><path stroke="#000000" stroke-width="2.0" stroke-linecap="butt" stroke-opacity="0.0" clip-path="url(#id_0)" d="M141.0 334.0L77.0 334.0L77.0 71.0C77.0 69.89543 77.89543 69.0 79.0 69.0L139.0 69.0C140.10457 69.0 141.0 69.89543 141.0 71.0Z" fill-rule="nonzero"/><path fill="#4f81bd" clip-path="url(#id_0)" d="M141.0 334.0L77.0 334.0L77.0 71.0C77.0 69.89543 77.89543 69.0 79.0 69.0L139.0 69.0C140.10457 69.0 141.0 69.89543 141.0 71.0Z" fill-rule="nonzero"/><path stroke="#000000" stroke-width="2.0" stroke-linecap="butt" stroke-opacity="0.0" clip-path="url(#id_0)" d="M239.0 334.0L175.0 334.0L175.0 103.0C175.0 101.89543 175.89543 101.0 177.0 101.0L237.0 101.0C238.10457 101.0 239.0 101.89543 239.0 103.0Z" fill-rule="nonzero"/><path fill="#4f81bd" clip-path="url(#id_0)" d="M239.0 334.0L175.0 334.0L175.0 103.0C175.0 101.89543 175.89543 101.0 177.0 101.0L237.0 101.0C238.10457 101.0 239.0 101.89543 239.0 103.0Z" fill-rule="nonzero"/><path stroke="#000000" stroke-width="2.0" stroke-linecap="butt" stroke-opacity="0.0" clip-path="url(#id_0)" d="M337.0 334.0L273.0 334.0L273.0 111.0C273.0 109.89543 273.89542 109.0 275.0 109.0L335.0 109.0C336.10458 109.0 337.0 109.89543 337.0 111.0Z" fill-rule="nonzero"/><path fill="#4f81bd" clip-path="url(#id_0)" d="M337.0 334.0L273.0 334.0L273.0 111.0C273.0 109.89543 273.89542 109.0 275.0 109.0L335.0 109.0C336.10458 109.0 337.0 109.89543 337.0 111.0Z" fill-rule="nonzero"/><path stroke="#000000" stroke-width="2.0" stroke-linecap="butt" stroke-opacity="0.0" clip-path="url(#id_0)" d="M436.0 334.0L372.0 334.0L372.0 145.0C372.0 143.89543 372.89542 143.0 374.0 143.0L434.0 143.0C435.10458 143.0 436.0 143.89543 436.0 145.0Z" fill-rule="nonzero"/><path fill="#4f81bd" clip-path="url(#id_0)" d="M436.0 334.0L372.0 334.0L372.0 145.0C372.0 143.89543 372.89542 143.0 374.0 143.0L434.0 143.0C435.10458 143.0 436.0 143.89543 436.0 145.0Z" fill-rule="nonzero"/><path stroke="#000000" stroke-width="2.0" stroke-linecap="butt" stroke-opacity="0.0" clip-path="url(#id_0)" d="M534.0 334.0L470.0 334.0L470.0 203.0C470.0 201.89543 470.89542 201.0 472.0 201.0L532.0 201.0C533.10455 201.0 534.0 201.89543 534.0 203.0Z" fill-rule="nonzero"/><path fill="#4f81bd" clip-path="url(#id_0)" d="M534.0 334.0L470.0 334.0L470.0 203.0C470.0 201.89543 470.89542 201.0 472.0 201.0L532.0 201.0C533.10455 201.0 534.0 201.89543 534.0 203.0Z" fill-rule="nonzero"/><path stroke="#000000" stroke-width="2.0" stroke-linecap="butt" stroke-opacity="0.0" clip-path="url(#id_0)" d="M632.0 334.0L568.0 334.0L568.0 333.5C568.0 333.22385 568.2239 333.0 568.5 333.0L631.5 333.0C631.7761 333.0 632.0 333.22385 632.0 333.5Z" fill-rule="nonzero"/><path fill="#4f81bd" clip-path="url(#id_0)" d="M632.0 334.0L568.0 334.0L568.0 333.5C568.0 333.22385 568.2239 333.0 568.5 333.0L631.5 333.0C631.7761 333.0 632.0 333.22385 632.0 333.5Z" fill-rule="nonzero"/><path stroke="#000000" stroke-width="2.0" stroke-linecap="butt" stroke-opacity="0.0" clip-path="url(#id_0)" d="M730.0 334.0L666.0 334.0L666.0 318.0C666.0 316.89542 666.89545 316.0 668.0 316.0L728.0 316.0C729.10455 316.0 730.0 316.89542 730.0 318.0Z" fill-rule="nonzero"/><path fill="#4f81bd" clip-path="url(#id_0)" d="M730.0 334.0L666.0 334.0L666.0 318.0C666.0 316.89542 666.89545 316.0 668.0 316.0L728.0 316.0C729.10455 316.0 730.0 316.89542 730.0 318.0Z" fill-rule="nonzero"/><path fill="#ffffff" d="M36.221874 333.6375Q36.221874 334.5125 36.08125 335.23126Q35.940624 335.95 35.6125 336.48126Q35.3 336.9969 34.784374 337.27814Q34.26875 337.5594 33.51875 337.5594Q32.8 337.5594 32.3 337.3094Q31.815624 337.04376 31.51875 336.5594Q31.221874 336.0594 31.096874 335.34064Q30.971874 334.60626 30.971874 333.66876Q30.971874 332.8094 31.1125 332.09064Q31.253124 331.35626 31.565624 330.84064Q31.89375 330.325 32.409374 330.04376Q32.925 329.7625 33.675 329.7625Q34.39375 329.7625 34.878124 330.0125Q35.3625 330.2625 35.659374 330.7625Q35.971874 331.2625 36.096874 331.98126Q36.221874 332.7 36.221874 333.6375ZM35.190624 333.71564Q35.190624 333.1375 35.14375 332.7Q35.096874 332.2469 35.01875 331.90314Q34.940624 331.54376 34.815624 331.29376Q34.690624 331.04376 34.51875 330.8875Q34.346874 330.73126 34.1125 330.65314Q33.89375 330.575 33.6125 330.575Q33.1125 330.575 32.8 330.8094Q32.4875 331.04376 32.3 331.46564Q32.128124 331.8719 32.065624 332.41876Q32.003124 332.96564 32.003124 333.60626Q32.003124 334.45 32.08125 335.04376Q32.175 335.6375 32.3625 336.0125Q32.565624 336.3875 32.8625 336.5594Q33.159374 336.73126 33.58125 336.73126Q33.909374 336.73126 34.14375 336.6375Q34.39375 336.52814 34.565624 336.34064Q34.753124 336.1375 34.8625 335.85626Q34.9875 335.575 35.05 335.2469Q35.128124 334.91876 35.159374 334.52814Q35.190624 334.1375 35.190624 333.71564Z" fill-rule="nonzero"/><path fill="#ffffff" d="M29.971874 259.5375Q29.971874 259.64688 29.95625 259.725Q29.940624 259.80313 29.909374 259.86563Q29.878124 259.92813 29.83125 259.95938Q29.8 259.975 29.7375 259.975L25.55 259.975Q25.471874 259.975 25.409374 259.95938Q25.346874 259.92813 25.3 259.88126Q25.253124 259.83438 25.2375 259.75626Q25.221874 259.6625 25.221874 259.5375Q25.221874 259.4125 25.221874 259.33438Q25.2375 259.24063 25.26875 259.17813Q25.3 259.1 25.33125 259.0375Q25.378124 258.975 25.45625 258.89688L26.925 257.33438Q27.440624 256.80313 27.7375 256.38126Q28.05 255.94376 28.20625 255.6Q28.378124 255.24063 28.425 254.95938Q28.4875 254.6625 28.4875 254.4125Q28.4875 254.1625 28.409374 253.94376Q28.33125 253.70938 28.175 253.5375Q28.01875 253.36563 27.784374 253.27188Q27.55 253.17813 27.2375 253.17813Q26.878124 253.17813 26.596874 253.27188Q26.315624 253.36563 26.096874 253.49063Q25.89375 253.6 25.7375 253.70938Q25.596874 253.80313 25.534374 253.80313Q25.4875 253.80313 25.45625 253.7875Q25.425 253.75626 25.39375 253.70938Q25.378124 253.64688 25.3625 253.56876Q25.3625 253.475 25.3625 253.35Q25.3625 253.27188 25.3625 253.20938Q25.378124 253.13126 25.378124 253.08438Q25.39375 253.0375 25.409374 253.00626Q25.440624 252.95938 25.503124 252.89688Q25.58125 252.83438 25.753124 252.74063Q25.940624 252.63126 26.190624 252.5375Q26.45625 252.42813 26.76875 252.36563Q27.08125 252.2875 27.425 252.2875Q27.971874 252.2875 28.378124 252.44376Q28.8 252.58438 29.065624 252.86563Q29.346874 253.13126 29.471874 253.49063Q29.6125 253.85 29.6125 254.25626Q29.6125 254.61563 29.55 254.975Q29.4875 255.33438 29.284374 255.75626Q29.08125 256.17813 28.675 256.69376Q28.284374 257.19376 27.64375 257.86563L26.440624 259.11563L29.7375 259.11563Q29.784374 259.11563 29.83125 259.14688Q29.878124 259.17813 29.909374 259.225Q29.940624 259.27188 29.95625 259.35Q29.971874 259.42813 29.971874 259.5375ZM36.221874 256.1625Q36.221874 257.0375 36.08125 257.75626Q35.940624 258.475 35.6125 259.00626Q35.3 259.52188 34.784374 259.80313Q34.26875 260.08438 33.51875 260.08438Q32.8 260.08438 32.3 259.83438Q31.815624 259.56876 31.51875 259.08438Q31.221874 258.58438 31.096874 257.86563Q30.971874 257.13126 30.971874 256.19376Q30.971874 255.33438 31.1125 254.61563Q31.253124 253.88126 31.565624 253.36563Q31.89375 252.85 32.409374 252.56876Q32.925 252.2875 33.675 252.2875Q34.39375 252.2875 34.878124 252.5375Q35.3625 252.7875 35.659374 253.2875Q35.971874 253.7875 36.096874 254.50626Q36.221874 255.225 36.221874 256.1625ZM35.190624 256.24063Q35.190624 255.6625 35.14375 255.225Q35.096874 254.77188 35.01875 254.42813Q34.940624 254.06876 34.815624 253.81876Q34.690624 253.56876 34.51875 253.4125Q34.346874 253.25626 34.1125 253.17813Q33.89375 253.1 33.6125 253.1Q33.1125 253.1 32.8 253.33438Q32.4875 253.56876 32.3 253.99063Q32.128124 254.39688 32.065624 254.94376Q32.003124 255.49063 32.003124 256.13126Q32.003124 256.975 32.08125 257.56876Q32.175 258.1625 32.3625 258.5375Q32.565624 258.9125 32.8625 259.08438Q33.159374 259.25626 33.58125 259.25626Q33.909374 259.25626 34.14375 259.1625Q34.39375 259.05313 34.565624 258.86563Q34.753124 258.6625 34.8625 258.38126Q34.9875 258.1 35.05 257.77188Q35.128124 257.44376 35.159374 257.05313Q35.190624 256.6625 35.190624 256.24063Z" fill-rule="nonzero"/><path fill="#ffffff" d="M30.284374 180.34375Q30.284374 180.53125 30.221874 180.65625Q30.175 180.76562 30.065624 180.76562L29.20625 180.76562L29.20625 182.35938Q29.20625 182.40625 29.175 182.4375Q29.159374 182.46875 29.096874 182.5Q29.05 182.51562 28.95625 182.51562Q28.8625 182.53125 28.70625 182.53125Q28.565624 182.53125 28.471874 182.51562Q28.378124 182.51562 28.315624 182.5Q28.26875 182.46875 28.253124 182.4375Q28.2375 182.40625 28.2375 182.35938L28.2375 180.76562L25.096874 180.76562Q25.034374 180.76562 24.9875 180.75Q24.940624 180.71875 24.89375 180.67188Q24.8625 180.625 24.846874 180.54688Q24.83125 180.45312 24.83125 180.3125Q24.83125 180.20312 24.83125 180.125Q24.846874 180.03125 24.8625 179.95312Q24.878124 179.875 24.909374 179.8125Q24.940624 179.75 24.971874 179.67188L27.70625 175.0625Q27.7375 175.01562 27.784374 174.98438Q27.846874 174.95312 27.925 174.9375Q28.01875 174.90625 28.14375 174.89062Q28.284374 174.875 28.45625 174.875Q28.659374 174.875 28.8 174.89062Q28.940624 174.90625 29.01875 174.9375Q29.1125 174.95312 29.159374 175.0Q29.20625 175.03125 29.20625 175.09375L29.20625 179.92188L30.065624 179.92188Q30.159374 179.92188 30.221874 180.03125Q30.284374 180.125 30.284374 180.34375ZM28.2375 175.76562L28.221874 175.76562L25.753124 179.92188L28.2375 179.92188L28.2375 175.76562ZM36.221874 178.6875Q36.221874 179.5625 36.08125 180.28125Q35.940624 181.0 35.6125 181.53125Q35.3 182.04688 34.784374 182.32812Q34.26875 182.60938 33.51875 182.60938Q32.8 182.60938 32.3 182.35938Q31.815624 182.09375 31.51875 181.60938Q31.221874 181.10938 31.096874 180.39062Q30.971874 179.65625 30.971874 178.71875Q30.971874 177.85938 31.1125 177.14062Q31.253124 176.40625 31.565624 175.89062Q31.89375 175.375 32.409374 175.09375Q32.925 174.8125 33.675 174.8125Q34.39375 174.8125 34.878124 175.0625Q35.3625 175.3125 35.659374 175.8125Q35.971874 176.3125 36.096874 177.03125Q36.221874 177.75 36.221874 178.6875ZM35.190624 178.76562Q35.190624 178.1875 35.14375 177.75Q35.096874 177.29688 35.01875 176.95312Q34.940624 176.59375 34.815624 176.34375Q34.690624 176.09375 34.51875 175.9375Q34.346874 175.78125 34.1125 175.70312Q33.89375 175.625 33.6125 175.625Q33.1125 175.625 32.8 175.85938Q32.4875 176.09375 32.3 176.51562Q32.128124 176.92188 32.065624 177.46875Q32.003124 178.01562 32.003124 178.65625Q32.003124 179.5 32.08125 180.09375Q32.175 180.6875 32.3625 181.0625Q32.565624 181.4375 32.8625 181.60938Q33.159374 181.78125 33.58125 181.78125Q33.909374 181.78125 34.14375 181.6875Q34.39375 181.57812 34.565624 181.39062Q34.753124 181.1875 34.8625 180.90625Q34.9875 180.625 35.05 180.29688Q35.128124 179.96875 35.159374 179.57812Q35.190624 179.1875 35.190624 178.76562Z" fill-rule="nonzero"/><path fill="#ffffff" d="M30.159374 102.57188Q30.159374 103.07188 30.003124 103.54063Q29.846874 103.99375 29.534374 104.35313Q29.221874 104.7125 28.7375 104.93125Q28.253124 105.13438 27.58125 105.13438Q27.1125 105.13438 26.7375 105.025Q26.378124 104.9 26.1125 104.68125Q25.846874 104.4625 25.659374 104.15Q25.4875 103.8375 25.378124 103.43125Q25.26875 103.025 25.221874 102.55625Q25.175 102.07188 25.175 101.50938Q25.175 101.025 25.221874 100.525Q25.284374 100.025 25.409374 99.57188Q25.55 99.10313 25.784374 98.69688Q26.01875 98.29063 26.3625 97.99375Q26.70625 97.68125 27.190624 97.50938Q27.690624 97.3375 28.33125 97.3375Q28.55 97.3375 28.76875 97.36875Q28.9875 97.38438 29.175 97.43125Q29.3625 97.47813 29.4875 97.54063Q29.628124 97.5875 29.659374 97.61875Q29.70625 97.65 29.721874 97.69688Q29.753124 97.72813 29.753124 97.775Q29.76875 97.80625 29.76875 97.86875Q29.784374 97.91563 29.784374 98.00938Q29.784374 98.10313 29.784374 98.18125Q29.784374 98.25938 29.753124 98.30625Q29.7375 98.35313 29.70625 98.38438Q29.675 98.4 29.6125 98.4Q29.55 98.4 29.440624 98.36875Q29.33125 98.32188 29.175 98.275Q29.01875 98.22813 28.784374 98.18125Q28.565624 98.13438 28.26875 98.13438Q27.721874 98.13438 27.33125 98.36875Q26.940624 98.5875 26.690624 98.9625Q26.440624 99.3375 26.315624 99.8375Q26.190624 100.32188 26.175 100.86875Q26.33125 100.775 26.51875 100.69688Q26.70625 100.60313 26.925 100.54063Q27.159374 100.4625 27.409374 100.41563Q27.675 100.36875 27.95625 100.36875Q28.565624 100.36875 28.9875 100.54063Q29.409374 100.7125 29.675 101.00938Q29.940624 101.29063 30.05 101.69688Q30.159374 102.10313 30.159374 102.57188ZM29.14375 102.66563Q29.14375 102.32188 29.065624 102.04063Q29.003124 101.75938 28.846874 101.57188Q28.690624 101.38438 28.425 101.275Q28.159374 101.16563 27.76875 101.16563Q27.55 101.16563 27.33125 101.2125Q27.128124 101.24375 26.925 101.32188Q26.721874 101.38438 26.534374 101.47813Q26.346874 101.55625 26.190624 101.66563Q26.190624 102.41563 26.284374 102.93125Q26.39375 103.44688 26.565624 103.75938Q26.753124 104.05625 27.034374 104.19688Q27.315624 104.32188 27.675 104.32188Q28.05 104.32188 28.33125 104.18125Q28.6125 104.04063 28.784374 103.80625Q28.971874 103.57188 29.05 103.275Q29.14375 102.97813 29.14375 102.66563ZM36.221874 101.2125Q36.221874 102.0875 36.08125 102.80625Q35.940624 103.525 35.6125 104.05625Q35.3 104.57188 34.784374 104.85313Q34.26875 105.13438 33.51875 105.13438Q32.8 105.13438 32.3 104.88438Q31.815624 104.61875 31.51875 104.13438Q31.221874 103.63438 31.096874 102.91563Q30.971874 102.18125 30.971874 101.24375Q30.971874 100.38438 31.1125 99.66563Q31.253124 98.93125 31.565624 98.41563Q31.89375 97.9 32.409374 97.61875Q32.925 97.3375 33.675 97.3375Q34.39375 97.3375 34.878124 97.5875Q35.3625 97.8375 35.659374 98.3375Q35.971874 98.8375 36.096874 99.55625Q36.221874 100.275 36.221874 101.2125ZM35.190624 101.29063Q35.190624 100.7125 35.14375 100.275Q35.096874 99.82188 35.01875 99.47813Q34.940624 99.11875 34.815624 98.86875Q34.690624 98.61875 34.51875 98.4625Q34.346874 98.30625 34.1125 98.22813Q33.89375 98.15 33.6125 98.15Q33.1125 98.15 32.8 98.38438Q32.4875 98.61875 32.3 99.04063Q32.128124 99.44688 32.065624 99.99375Q32.003124 100.54063 32.003124 101.18125Q32.003124 102.025 32.08125 102.61875Q32.175 103.2125 32.3625 103.5875Q32.565624 103.9625 32.8625 104.13438Q33.159374 104.30625 33.58125 104.30625Q33.909374 104.30625 34.14375 104.2125Q34.39375 104.10313 34.565624 103.91563Q34.753124 103.7125 34.8625 103.43125Q34.9875 103.15 35.05 102.82188Q35.128124 102.49375 35.159374 102.10313Q35.190624 101.7125 35.190624 101.29063Z" fill-rule="nonzero"/><path fill="#ffffff" d="M30.14375 25.596874Q30.14375 26.096874 29.95625 26.4875Q29.784374 26.8625 29.45625 27.128124Q29.128124 27.39375 28.64375 27.534374Q28.159374 27.659374 27.534374 27.659374Q26.940624 27.659374 26.471874 27.534374Q26.01875 27.409374 25.690624 27.175Q25.378124 26.940624 25.20625 26.596874Q25.034374 26.2375 25.034374 25.784374Q25.034374 25.425 25.14375 25.128124Q25.26875 24.83125 25.4875 24.58125Q25.70625 24.315624 26.01875 24.096874Q26.346874 23.878124 26.753124 23.675Q26.409374 23.503124 26.128124 23.3Q25.8625 23.096874 25.675 22.8625Q25.4875 22.628124 25.39375 22.3625Q25.3 22.08125 25.3 21.76875Q25.3 21.3625 25.440624 21.01875Q25.58125 20.675 25.8625 20.425Q26.159374 20.159374 26.6125 20.01875Q27.065624 19.8625 27.659374 19.8625Q28.2375 19.8625 28.64375 20.003124Q29.065624 20.128124 29.33125 20.378124Q29.6125 20.6125 29.7375 20.940624Q29.878124 21.253124 29.878124 21.6125Q29.878124 21.925 29.76875 22.20625Q29.675 22.471874 29.4875 22.721874Q29.3 22.95625 29.01875 23.175Q28.753124 23.39375 28.409374 23.58125Q28.815624 23.784374 29.14375 24.003124Q29.471874 24.221874 29.690624 24.471874Q29.909374 24.70625 30.01875 24.9875Q30.14375 25.26875 30.14375 25.596874ZM28.878124 21.70625Q28.878124 21.471874 28.784374 21.26875Q28.70625 21.065624 28.534374 20.925Q28.378124 20.784374 28.128124 20.721874Q27.89375 20.64375 27.58125 20.64375Q26.940624 20.64375 26.6125 20.940624Q26.3 21.221874 26.3 21.70625Q26.3 21.940624 26.378124 22.14375Q26.45625 22.33125 26.6125 22.51875Q26.784374 22.690624 27.034374 22.8625Q27.3 23.01875 27.64375 23.20625Q28.2375 22.89375 28.55 22.534374Q28.878124 22.159374 28.878124 21.70625ZM29.128124 25.70625Q29.128124 25.440624 29.01875 25.221874Q28.925 25.003124 28.721874 24.815624Q28.51875 24.6125 28.20625 24.440624Q27.909374 24.26875 27.51875 24.065624Q27.14375 24.253124 26.8625 24.440624Q26.596874 24.6125 26.409374 24.815624Q26.2375 25.003124 26.14375 25.221874Q26.05 25.425 26.05 25.690624Q26.05 26.253124 26.440624 26.565624Q26.83125 26.878124 27.596874 26.878124Q28.346874 26.878124 28.7375 26.565624Q29.128124 26.253124 29.128124 25.70625ZM36.221874 23.7375Q36.221874 24.6125 36.08125 25.33125Q35.940624 26.05 35.6125 26.58125Q35.3 27.096874 34.784374 27.378124Q34.26875 27.659374 33.51875 27.659374Q32.8 27.659374 32.3 27.409374Q31.815624 27.14375 31.51875 26.659374Q31.221874 26.159374 31.096874 25.440624Q30.971874 24.70625 30.971874 23.76875Q30.971874 22.909374 31.1125 22.190624Q31.253124 21.45625 31.565624 20.940624Q31.89375 20.425 32.409374 20.14375Q32.925 19.8625 33.675 19.8625Q34.39375 19.8625 34.878124 20.1125Q35.3625 20.3625 35.659374 20.8625Q35.971874 21.3625 36.096874 22.08125Q36.221874 22.8 36.221874 23.7375ZM35.190624 23.815624Q35.190624 23.2375 35.14375 22.8Q35.096874 22.346874 35.01875 22.003124Q34.940624 21.64375 34.815624 21.39375Q34.690624 21.14375 34.51875 20.9875Q34.346874 20.83125 34.1125 20.753124Q33.89375 20.675 33.6125 20.675Q33.1125 20.675 32.8 20.909374Q32.4875 21.14375 32.3 21.565624Q32.128124 21.971874 32.065624 22.51875Q32.003124 23.065624 32.003124 23.70625Q32.003124 24.55 32.08125 25.14375Q32.175 25.7375 32.3625 26.1125Q32.565624 26.4875 32.8625 26.659374Q33.159374 26.83125 33.58125 26.83125Q33.909374 26.83125 34.14375 26.7375Q34.39375 26.628124 34.565624 26.440624Q34.753124 26.2375 34.8625 25.95625Q34.9875 25.675 35.05 25.346874Q35.128124 25.01875 35.159374 24.628124Q35.190624 24.2375 35.190624 23.815624Z" fill-rule="nonzero"/><path fill="#000000" d="M98.59694 349.29376Q98.59694 349.34064 98.56569 349.3875Q98.550064 349.41876 98.487564 349.4344Q98.44069 349.45 98.34694 349.46564Q98.25319 349.48126 98.112564 349.48126Q97.97194 349.48126 97.87819 349.46564Q97.78444 349.45 97.72194 349.4344Q97.675064 349.41876 97.643814 349.3875Q97.62819 349.34064 97.62819 349.29376L97.62819 342.7L97.612564 342.7L94.90944 349.325Q94.893814 349.3719 94.862564 349.40314Q94.831314 349.41876 94.768814 349.45Q94.706314 349.46564 94.612564 349.46564Q94.53444 349.48126 94.40944 349.48126Q94.300064 349.48126 94.206314 349.46564Q94.112564 349.46564 94.050064 349.45Q94.00319 349.41876 93.97194 349.3875Q93.94069 349.35626 93.925064 349.325L91.34694 342.7L91.331314 342.7L91.331314 349.29376Q91.331314 349.34064 91.300064 349.3875Q91.28444 349.41876 91.22194 349.4344Q91.175064 349.45 91.081314 349.46564Q90.987564 349.48126 90.831314 349.48126Q90.69069 349.48126 90.59694 349.46564Q90.50319 349.45 90.44069 349.4344Q90.393814 349.41876 90.37819 349.3875Q90.362564 349.34064 90.362564 349.29376L90.362564 342.325Q90.362564 342.075 90.487564 341.98126Q90.612564 341.8719 90.768814 341.8719L91.37819 341.8719Q91.56569 341.8719 91.706314 341.90314Q91.84694 341.9344 91.956314 342.0125Q92.06569 342.09064 92.12819 342.21564Q92.206314 342.325 92.25319 342.48126L94.456314 347.96564L94.487564 347.96564L96.768814 342.4969Q96.831314 342.325 96.90944 342.2Q96.987564 342.075 97.06569 342.0125Q97.15944 341.9344 97.268814 341.90314Q97.393814 341.8719 97.53444 341.8719L98.175064 341.8719Q98.25319 341.8719 98.331314 341.90314Q98.425064 341.91876 98.47194 341.98126Q98.53444 342.02814 98.56569 342.1219Q98.59694 342.2 98.59694 342.325L98.59694 349.29376ZM105.143814 346.60626Q105.143814 347.2469 104.97194 347.79376Q104.81569 348.34064 104.47194 348.73126Q104.12819 349.1219 103.62819 349.34064Q103.12819 349.5594 102.456314 349.5594Q101.800064 349.5594 101.31569 349.3719Q100.831314 349.16876 100.50319 348.8094Q100.19069 348.4344 100.03444 347.91876Q99.87819 347.3875 99.87819 346.71564Q99.87819 346.075 100.03444 345.52814Q100.206314 344.98126 100.53444 344.59064Q100.87819 344.2 101.37819 343.98126Q101.893814 343.7625 102.56569 343.7625Q103.22194 343.7625 103.69069 343.96564Q104.175064 344.15314 104.50319 344.52814Q104.831314 344.8875 104.987564 345.41876Q105.143814 345.95 105.143814 346.60626ZM104.12819 346.66876Q104.12819 346.2469 104.050064 345.8719Q103.97194 345.48126 103.78444 345.2Q103.612564 344.90314 103.300064 344.7469Q102.987564 344.575 102.518814 344.575Q102.09694 344.575 101.78444 344.73126Q101.487564 344.8719 101.28444 345.15314Q101.081314 345.4344 100.987564 345.825Q100.893814 346.2 100.893814 346.65314Q100.893814 347.075 100.97194 347.46564Q101.050064 347.84064 101.22194 348.1375Q101.40944 348.41876 101.72194 348.59064Q102.03444 348.7469 102.50319 348.7469Q102.925064 348.7469 103.237564 348.59064Q103.550064 348.4344 103.737564 348.16876Q103.94069 347.8875 104.03444 347.5125Q104.12819 347.1219 104.12819 346.66876ZM110.78444 349.3094Q110.78444 349.35626 110.75319 349.3875Q110.737564 349.41876 110.675064 349.45Q110.62819 349.46564 110.53444 349.46564Q110.44069 349.48126 110.300064 349.48126Q110.15944 349.48126 110.06569 349.46564Q109.97194 349.46564 109.90944 349.45Q109.862564 349.41876 109.831314 349.3875Q109.81569 349.35626 109.81569 349.3094L109.81569 346.21564Q109.81569 345.7625 109.737564 345.4969Q109.675064 345.21564 109.53444 345.0125Q109.40944 344.8094 109.19069 344.71564Q108.987564 344.60626 108.706314 344.60626Q108.331314 344.60626 107.97194 344.8719Q107.612564 345.1219 107.206314 345.6219L107.206314 349.3094Q107.206314 349.35626 107.175064 349.3875Q107.15944 349.41876 107.112564 349.45Q107.06569 349.46564 106.97194 349.46564Q106.87819 349.48126 106.72194 349.48126Q106.581314 349.48126 106.487564 349.46564Q106.393814 349.46564 106.331314 349.45Q106.28444 349.41876 106.25319 349.3875Q106.237564 349.35626 106.237564 349.3094L106.237564 344.02814Q106.237564 343.98126 106.25319 343.95Q106.28444 343.91876 106.331314 343.90314Q106.37819 343.8719 106.456314 343.85626Q106.550064 343.84064 106.69069 343.84064Q106.81569 343.84064 106.893814 343.85626Q106.987564 343.8719 107.03444 343.90314Q107.081314 343.91876 107.09694 343.95Q107.112564 343.98126 107.112564 344.02814L107.112564 344.73126Q107.56569 344.23126 108.00319 343.9969Q108.44069 343.7625 108.893814 343.7625Q109.425064 343.7625 109.78444 343.95Q110.143814 344.1219 110.362564 344.41876Q110.59694 344.71564 110.69069 345.1219Q110.78444 345.52814 110.78444 346.09064L110.78444 349.3094ZM116.768814 349.3094Q116.768814 349.35626 116.737564 349.3875Q116.72194 349.41876 116.675064 349.45Q116.62819 349.46564 116.53444 349.46564Q116.456314 349.48126 116.34694 349.48126Q116.22194 349.48126 116.12819 349.46564Q116.050064 349.46564 115.987564 349.45Q115.94069 349.41876 115.90944 349.3875Q115.893814 349.35626 115.893814 349.3094L115.893814 348.60626Q115.487564 349.0594 115.03444 349.3094Q114.581314 349.5594 114.050064 349.5594Q113.47194 349.5594 113.06569 349.34064Q112.65944 349.10626 112.393814 348.73126Q112.143814 348.34064 112.018814 347.825Q111.90944 347.3094 111.90944 346.73126Q111.90944 346.04376 112.050064 345.4969Q112.206314 344.95 112.487564 344.575Q112.78444 344.1844 113.206314 343.98126Q113.62819 343.7625 114.19069 343.7625Q114.643814 343.7625 115.018814 343.96564Q115.40944 344.16876 115.78444 344.5594L115.78444 341.4969Q115.78444 341.45 115.800064 341.41876Q115.831314 341.3875 115.87819 341.3719Q115.94069 341.34064 116.03444 341.325Q116.12819 341.3094 116.268814 341.3094Q116.40944 341.3094 116.50319 341.325Q116.59694 341.34064 116.643814 341.3719Q116.706314 341.3875 116.737564 341.41876Q116.768814 341.45 116.768814 341.4969L116.768814 349.3094ZM115.78444 345.59064Q115.393814 345.10626 115.018814 344.85626Q114.65944 344.59064 114.268814 344.59064Q113.893814 344.59064 113.62819 344.77814Q113.37819 344.95 113.22194 345.2469Q113.06569 345.52814 112.987564 345.8875Q112.90944 346.2469 112.90944 346.6219Q112.90944 347.02814 112.97194 347.40314Q113.03444 347.77814 113.19069 348.075Q113.34694 348.3719 113.59694 348.5594Q113.84694 348.73126 114.22194 348.73126Q114.425064 348.73126 114.59694 348.6844Q114.768814 348.6219 114.956314 348.5125Q115.143814 348.3875 115.34694 348.2Q115.56569 347.9969 115.78444 347.7L115.78444 345.59064ZM122.22194 349.3094Q122.22194 349.3719 122.175064 349.41876Q122.12819 349.45 122.03444 349.46564Q121.956314 349.48126 121.800064 349.48126Q121.643814 349.48126 121.550064 349.46564Q121.47194 349.45 121.425064 349.41876Q121.37819 349.3719 121.37819 349.3094L121.37819 348.77814Q121.03444 349.15314 120.612564 349.35626Q120.19069 349.5594 119.72194 349.5594Q119.300064 349.5594 118.956314 349.45Q118.62819 349.34064 118.37819 349.1375Q118.143814 348.9344 118.018814 348.6375Q117.893814 348.34064 117.893814 347.95Q117.893814 347.5125 118.06569 347.1844Q118.25319 346.85626 118.581314 346.6375Q118.925064 346.41876 119.40944 346.3094Q119.90944 346.2 120.53444 346.2L121.25319 346.2L121.25319 345.79376Q121.25319 345.48126 121.19069 345.2469Q121.12819 345.0125 120.987564 344.8719Q120.84694 344.71564 120.612564 344.6375Q120.37819 344.54376 120.050064 344.54376Q119.69069 344.54376 119.40944 344.6375Q119.12819 344.71564 118.90944 344.825Q118.69069 344.91876 118.550064 345.0125Q118.40944 345.09064 118.331314 345.09064Q118.28444 345.09064 118.25319 345.075Q118.22194 345.04376 118.19069 344.9969Q118.175064 344.95 118.15944 344.8875Q118.143814 344.8094 118.143814 344.71564Q118.143814 344.575 118.15944 344.4969Q118.19069 344.40314 118.268814 344.325Q118.34694 344.2469 118.53444 344.15314Q118.737564 344.04376 118.987564 343.96564Q119.237564 343.8719 119.53444 343.825Q119.831314 343.7625 120.143814 343.7625Q120.706314 343.7625 121.09694 343.90314Q121.50319 344.02814 121.737564 344.27814Q121.987564 344.52814 122.09694 344.90314Q122.22194 345.2625 122.22194 345.7469L122.22194 349.3094ZM121.25319 346.90314L120.425064 346.90314Q120.03444 346.90314 119.737564 346.96564Q119.44069 347.02814 119.25319 347.16876Q119.06569 347.29376 118.97194 347.48126Q118.87819 347.66876 118.87819 347.90314Q118.87819 348.325 119.12819 348.575Q119.393814 348.8094 119.862564 348.8094Q120.25319 348.8094 120.56569 348.6219Q120.893814 348.41876 121.25319 348.0125L121.25319 346.90314ZM126.643814 349.45L125.94069 351.3875Q125.90944 351.48126 125.768814 351.52814Q125.62819 351.59064 125.331314 351.59064Q125.175064 351.59064 125.081314 351.575Q124.987564 351.5594 124.94069 351.5125Q124.893814 351.48126 124.87819 351.41876Q124.87819 351.3719 124.90944 351.27814L125.643814 349.45Q125.581314 349.41876 125.53444 349.3719Q125.487564 349.325 125.47194 349.2625L123.59694 344.21564Q123.550064 344.10626 123.550064 344.04376Q123.550064 343.96564 123.59694 343.91876Q123.643814 343.8719 123.737564 343.85626Q123.84694 343.84064 124.03444 343.84064Q124.206314 343.84064 124.300064 343.85626Q124.40944 343.8719 124.456314 343.90314Q124.518814 343.91876 124.53444 343.96564Q124.56569 343.9969 124.59694 344.075L126.112564 348.3094L126.12819 348.3094L127.581314 344.0594Q127.612564 343.9344 127.65944 343.90314Q127.706314 343.8719 127.800064 343.85626Q127.90944 343.84064 128.09694 343.84064Q128.26881 343.84064 128.36256 343.85626Q128.47194 343.8719 128.51881 343.91876Q128.58131 343.96564 128.58131 344.04376Q128.58131 344.10626 128.53444 344.2L126.643814 349.45Z" fill-rule="nonzero"/><path fill="#000000" d="M192.83025 342.29376Q192.83025 342.41876 192.81462 342.4969Q192.799 342.575 192.76775 342.6219Q192.75212 342.66876 192.70525 342.7Q192.674 342.71564 192.62712 342.71564L190.4865 342.71564L190.4865 349.29376Q190.4865 349.34064 190.45525 349.3875Q190.43962 349.41876 190.37712 349.4344Q190.33025 349.45 190.2365 349.46564Q190.14275 349.48126 189.9865 349.48126Q189.84587 349.48126 189.7365 349.46564Q189.64275 349.45 189.58025 349.4344Q189.53337 349.41876 189.50212 349.3875Q189.4865 349.34064 189.4865 349.29376L189.4865 342.71564L187.34587 342.71564Q187.299 342.71564 187.26775 342.7Q187.2365 342.66876 187.20525 342.6219Q187.18962 342.575 187.174 342.4969Q187.15837 342.41876 187.15837 342.29376Q187.15837 342.1844 187.174 342.10626Q187.18962 342.0125 187.20525 341.96564Q187.2365 341.91876 187.26775 341.90314Q187.299 341.8719 187.34587 341.8719L192.62712 341.8719Q192.674 341.8719 192.70525 341.90314Q192.75212 341.91876 192.76775 341.96564Q192.799 342.0125 192.81462 342.10626Q192.83025 342.1844 192.83025 342.29376ZM198.4865 349.3094Q198.4865 349.35626 198.45525 349.3875Q198.43962 349.41876 198.37712 349.45Q198.33025 349.46564 198.2365 349.46564Q198.15837 349.48126 198.03337 349.48126Q197.90837 349.48126 197.81462 349.46564Q197.7365 349.46564 197.68962 349.45Q197.64275 349.41876 197.6115 349.3875Q197.59587 349.35626 197.59587 349.3094L197.59587 348.60626Q197.14275 349.10626 196.70525 349.34064Q196.26775 349.5594 195.81462 349.5594Q195.299 349.5594 194.924 349.3875Q194.56462 349.21564 194.34587 348.91876Q194.12712 348.60626 194.03337 348.21564Q193.93962 347.8094 193.93962 347.23126L193.93962 344.02814Q193.93962 343.98126 193.95525 343.95Q193.97087 343.91876 194.03337 343.90314Q194.09587 343.8719 194.18962 343.85626Q194.28337 343.84064 194.424 343.84064Q194.56462 343.84064 194.65837 343.85626Q194.75212 343.8719 194.799 343.90314Q194.8615 343.91876 194.87712 343.95Q194.90837 343.98126 194.90837 344.02814L194.90837 347.10626Q194.90837 347.5594 194.97087 347.84064Q195.03337 348.1219 195.174 348.325Q195.31462 348.5125 195.51775 348.6219Q195.7365 348.73126 196.01775 348.73126Q196.37712 348.73126 196.7365 348.48126Q197.09587 348.21564 197.50212 347.71564L197.50212 344.02814Q197.50212 343.98126 197.51775 343.95Q197.549 343.91876 197.59587 343.90314Q197.65837 343.8719 197.75212 343.85626Q197.84587 343.84064 197.9865 343.84064Q198.12712 343.84064 198.22087 343.85626Q198.31462 343.8719 198.3615 343.90314Q198.424 343.91876 198.45525 343.95Q198.4865 343.98126 198.4865 344.02814L198.4865 349.3094ZM204.45525 346.4344Q204.45525 346.66876 204.34587 346.7625Q204.2365 346.85626 204.08025 346.85626L200.62712 346.85626Q200.62712 347.29376 200.70525 347.65314Q200.799 347.9969 201.00212 348.2625Q201.22087 348.5125 201.549 348.65314Q201.87712 348.77814 202.34587 348.77814Q202.72087 348.77814 203.01775 348.71564Q203.31462 348.65314 203.51775 348.575Q203.7365 348.4969 203.87712 348.4344Q204.01775 348.3719 204.08025 348.3719Q204.12712 348.3719 204.15837 348.40314Q204.18962 348.41876 204.20525 348.46564Q204.22087 348.4969 204.22087 348.575Q204.2365 348.65314 204.2365 348.7469Q204.2365 348.825 204.22087 348.8875Q204.22087 348.9344 204.20525 348.98126Q204.20525 349.02814 204.18962 349.0594Q204.174 349.09064 204.14275 349.1375Q204.1115 349.16876 203.93962 349.2469Q203.78337 349.3094 203.53337 349.3875Q203.28337 349.45 202.95525 349.4969Q202.62712 349.5594 202.25212 349.5594Q201.59587 349.5594 201.09587 349.3875Q200.6115 349.2 200.28337 348.84064Q199.95525 348.48126 199.78337 347.95Q199.6115 347.40314 199.6115 346.6844Q199.6115 346.0125 199.78337 345.46564Q199.95525 344.91876 200.28337 344.54376Q200.62712 344.16876 201.09587 343.96564Q201.56462 343.7625 202.14275 343.7625Q202.76775 343.7625 203.20525 343.96564Q203.64275 344.16876 203.924 344.5125Q204.20525 344.84064 204.33025 345.29376Q204.45525 345.7469 204.45525 346.2625L204.45525 346.4344ZM203.4865 346.15314Q203.50212 345.3875 203.14275 344.96564Q202.799 344.52814 202.09587 344.52814Q201.7365 344.52814 201.47087 344.66876Q201.20525 344.79376 201.01775 345.0125Q200.84587 345.23126 200.7365 345.52814Q200.64275 345.825 200.62712 346.15314L203.4865 346.15314ZM209.26775 347.8719Q209.26775 348.27814 209.1115 348.59064Q208.97087 348.90314 208.68962 349.1219Q208.424 349.34064 208.03337 349.45Q207.65837 349.5594 207.20525 349.5594Q206.924 349.5594 206.65837 349.5125Q206.40837 349.48126 206.20525 349.41876Q206.00212 349.34064 205.8615 349.2625Q205.72087 349.1844 205.65837 349.1375Q205.59587 349.075 205.56462 348.96564Q205.53337 348.85626 205.53337 348.6844Q205.53337 348.575 205.549 348.4969Q205.56462 348.41876 205.58025 348.3719Q205.59587 348.325 205.62712 348.3094Q205.65837 348.27814 205.70525 348.27814Q205.76775 348.27814 205.89275 348.35626Q206.01775 348.4344 206.20525 348.52814Q206.39275 348.6219 206.64275 348.71564Q206.89275 348.79376 207.22087 348.79376Q207.47087 348.79376 207.65837 348.7469Q207.8615 348.6844 208.00212 348.59064Q208.15837 348.48126 208.2365 348.325Q208.31462 348.15314 208.31462 347.95Q208.31462 347.71564 208.20525 347.575Q208.09587 347.41876 207.90837 347.3094Q207.72087 347.1844 207.4865 347.09064Q207.25212 346.9969 207.00212 346.90314Q206.75212 346.79376 206.50212 346.66876Q206.26775 346.54376 206.08025 346.3719Q205.89275 346.1844 205.78337 345.9344Q205.674 345.6844 205.674 345.325Q205.674 345.0125 205.78337 344.73126Q205.90837 344.45 206.14275 344.2469Q206.39275 344.02814 206.75212 343.90314Q207.1115 343.7625 207.59587 343.7625Q207.799 343.7625 208.00212 343.8094Q208.22087 343.84064 208.39275 343.8875Q208.56462 343.9344 208.674 343.9969Q208.799 344.0594 208.8615 344.10626Q208.924 344.15314 208.93962 344.2Q208.97087 344.23126 208.97087 344.27814Q208.9865 344.3094 208.9865 344.3875Q209.00212 344.45 209.00212 344.54376Q209.00212 344.6375 208.9865 344.71564Q208.9865 344.77814 208.95525 344.825Q208.93962 344.8719 208.90837 344.90314Q208.89275 344.91876 208.84587 344.91876Q208.799 344.91876 208.68962 344.85626Q208.59587 344.79376 208.43962 344.71564Q208.28337 344.6375 208.06462 344.575Q207.8615 344.5125 207.58025 344.5125Q207.33025 344.5125 207.14275 344.575Q206.95525 344.6219 206.83025 344.73126Q206.72087 344.825 206.65837 344.96564Q206.59587 345.10626 206.59587 345.27814Q206.59587 345.5125 206.70525 345.66876Q206.83025 345.8094 207.01775 345.9344Q207.20525 346.04376 207.43962 346.1375Q207.68962 346.23126 207.93962 346.34064Q208.18962 346.4344 208.424 346.5594Q208.674 346.6844 208.8615 346.85626Q209.049 347.02814 209.15837 347.27814Q209.26775 347.52814 209.26775 347.8719ZM215.4865 349.3094Q215.4865 349.35626 215.45525 349.3875Q215.43962 349.41876 215.39275 349.45Q215.34587 349.46564 215.25212 349.46564Q215.174 349.48126 215.06462 349.48126Q214.93962 349.48126 214.84587 349.46564Q214.76775 349.46564 214.70525 349.45Q214.65837 349.41876 214.62712 349.3875Q214.6115 349.35626 214.6115 349.3094L214.6115 348.60626Q214.20525 349.0594 213.75212 349.3094Q213.299 349.5594 212.76775 349.5594Q212.18962 349.5594 211.78337 349.34064Q211.37712 349.10626 211.1115 348.73126Q210.8615 348.34064 210.7365 347.825Q210.62712 347.3094 210.62712 346.73126Q210.62712 346.04376 210.76775 345.4969Q210.924 344.95 211.20525 344.575Q211.50212 344.1844 211.924 343.98126Q212.34587 343.7625 212.90837 343.7625Q213.3615 343.7625 213.7365 343.96564Q214.12712 344.16876 214.50212 344.5594L214.50212 341.4969Q214.50212 341.45 214.51775 341.41876Q214.549 341.3875 214.59587 341.3719Q214.65837 341.34064 214.75212 341.325Q214.84587 341.3094 214.9865 341.3094Q215.12712 341.3094 215.22087 341.325Q215.31462 341.34064 215.3615 341.3719Q215.424 341.3875 215.45525 341.41876Q215.4865 341.45 215.4865 341.4969L215.4865 349.3094ZM214.50212 345.59064Q214.1115 345.10626 213.7365 344.85626Q213.37712 344.59064 212.9865 344.59064Q212.6115 344.59064 212.34587 344.77814Q212.09587 344.95 211.93962 345.2469Q211.78337 345.52814 211.70525 345.8875Q211.62712 346.2469 211.62712 346.6219Q211.62712 347.02814 211.68962 347.40314Q211.75212 347.77814 211.90837 348.075Q212.06462 348.3719 212.31462 348.5594Q212.56462 348.73126 212.93962 348.73126Q213.14275 348.73126 213.31462 348.6844Q213.4865 348.6219 213.674 348.5125Q213.8615 348.3875 214.06462 348.2Q214.28337 347.9969 214.50212 347.7L214.50212 345.59064ZM220.93962 349.3094Q220.93962 349.3719 220.89275 349.41876Q220.84587 349.45 220.75212 349.46564Q220.674 349.48126 220.51775 349.48126Q220.3615 349.48126 220.26775 349.46564Q220.18962 349.45 220.14275 349.41876Q220.09587 349.3719 220.09587 349.3094L220.09587 348.77814Q219.75212 349.15314 219.33025 349.35626Q218.90837 349.5594 218.43962 349.5594Q218.01775 349.5594 217.674 349.45Q217.34587 349.34064 217.09587 349.1375Q216.8615 348.9344 216.7365 348.6375Q216.6115 348.34064 216.6115 347.95Q216.6115 347.5125 216.78337 347.1844Q216.97087 346.85626 217.299 346.6375Q217.64275 346.41876 218.12712 346.3094Q218.62712 346.2 219.25212 346.2L219.97087 346.2L219.97087 345.79376Q219.97087 345.48126 219.90837 345.2469Q219.84587 345.0125 219.70525 344.8719Q219.56462 344.71564 219.33025 344.6375Q219.09587 344.54376 218.76775 344.54376Q218.40837 344.54376 218.12712 344.6375Q217.84587 344.71564 217.62712 344.825Q217.40837 344.91876 217.26775 345.0125Q217.12712 345.09064 217.049 345.09064Q217.00212 345.09064 216.97087 345.075Q216.93962 345.04376 216.90837 344.9969Q216.89275 344.95 216.87712 344.8875Q216.8615 344.8094 216.8615 344.71564Q216.8615 344.575 216.87712 344.4969Q216.90837 344.40314 216.9865 344.325Q217.06462 344.2469 217.25212 344.15314Q217.45525 344.04376 217.70525 343.96564Q217.95525 343.8719 218.25212 343.825Q218.549 343.7625 218.8615 343.7625Q219.424 343.7625 219.81462 343.90314Q220.22087 344.02814 220.45525 344.27814Q220.70525 344.52814 220.81462 344.90314Q220.93962 345.2625 220.93962 345.7469L220.93962 349.3094ZM219.97087 346.90314L219.14275 346.90314Q218.75212 346.90314 218.45525 346.96564Q218.15837 347.02814 217.97087 347.16876Q217.78337 347.29376 217.68962 347.48126Q217.59587 347.66876 217.59587 347.90314Q217.59587 348.325 217.84587 348.575Q218.1115 348.8094 218.58025 348.8094Q218.97087 348.8094 219.28337 348.6219Q219.6115 348.41876 219.97087 348.0125L219.97087 346.90314ZM225.3615 349.45L224.65837 351.3875Q224.62712 351.48126 224.4865 351.52814Q224.34587 351.59064 224.049 351.59064Q223.89275 351.59064 223.799 351.575Q223.70525 351.5594 223.65837 351.5125Q223.6115 351.48126 223.59587 351.41876Q223.59587 351.3719 223.62712 351.27814L224.3615 349.45Q224.299 349.41876 224.25212 349.3719Q224.20525 349.325 224.18962 349.2625L222.31462 344.21564Q222.26775 344.10626 222.26775 344.04376Q222.26775 343.96564 222.31462 343.91876Q222.3615 343.8719 222.45525 343.85626Q222.56462 343.84064 222.75212 343.84064Q222.924 343.84064 223.01775 343.85626Q223.12712 343.8719 223.174 343.90314Q223.2365 343.91876 223.25212 343.96564Q223.28337 343.9969 223.31462 344.075L224.83025 348.3094L224.84587 348.3094L226.299 344.0594Q226.33025 343.9344 226.37712 343.90314Q226.424 343.8719 226.51775 343.85626Q226.62712 343.84064 226.81462 343.84064Q226.9865 343.84064 227.08025 343.85626Q227.18962 343.8719 227.2365 343.91876Q227.299 343.96564 227.299 344.04376Q227.299 344.10626 227.25212 344.2L225.3615 349.45Z" fill-rule="nonzero"/><path fill="#000000" d="M285.04794 349.23126Q285.03232 349.3094 284.98544 349.35626Q284.93857 349.40314 284.84482 349.4344Q284.7667 349.46564 284.6417 349.46564Q284.53232 349.48126 284.36044 349.48126Q284.17294 349.48126 284.04794 349.46564Q283.92294 349.46564 283.8292 349.4344Q283.75107 349.40314 283.7042 349.35626Q283.67294 349.3094 283.65732 349.23126L282.06357 343.4969L282.04794 343.4969L280.5792 349.23126Q280.56357 349.3094 280.5167 349.35626Q280.48544 349.40314 280.40732 349.4344Q280.3292 349.46564 280.2042 349.46564Q280.09482 349.48126 279.90732 349.48126Q279.71982 349.48126 279.5792 349.46564Q279.4542 349.46564 279.37607 349.4344Q279.29794 349.40314 279.25107 349.35626Q279.2042 349.3094 279.18857 349.23126L277.18857 342.23126Q277.1417 342.09064 277.1417 342.0125Q277.1417 341.9344 277.18857 341.90314Q277.23544 341.85626 277.34482 341.84064Q277.46982 341.825 277.65732 341.825Q277.8292 341.825 277.93857 341.84064Q278.04794 341.85626 278.09482 341.8875Q278.15732 341.90314 278.17294 341.95Q278.18857 341.98126 278.2042 342.04376L279.90732 348.3875L279.92294 348.3875L281.53232 342.0594Q281.54794 341.9969 281.5792 341.95Q281.61044 341.90314 281.65732 341.8875Q281.71982 341.85626 281.8292 341.84064Q281.93857 341.825 282.11044 341.825Q282.28232 341.825 282.37607 341.84064Q282.46982 341.85626 282.53232 341.8875Q282.59482 341.90314 282.61044 341.95Q282.6417 341.9969 282.65732 342.0594L284.40732 348.3875L284.40732 348.3875L286.0792 342.04376Q286.09482 341.9969 286.11044 341.95Q286.1417 341.90314 286.18857 341.8875Q286.25107 341.85626 286.34482 341.84064Q286.4542 341.825 286.62607 341.825Q286.79794 341.825 286.8917 341.84064Q287.00107 341.85626 287.04794 341.90314Q287.09482 341.95 287.09482 342.02814Q287.09482 342.09064 287.06357 342.23126L285.04794 349.23126ZM293.17294 346.4344Q293.17294 346.66876 293.06357 346.7625Q292.9542 346.85626 292.79794 346.85626L289.34482 346.85626Q289.34482 347.29376 289.42294 347.65314Q289.5167 347.9969 289.71982 348.2625Q289.93857 348.5125 290.2667 348.65314Q290.59482 348.77814 291.06357 348.77814Q291.43857 348.77814 291.73544 348.71564Q292.03232 348.65314 292.23544 348.575Q292.4542 348.4969 292.59482 348.4344Q292.73544 348.3719 292.79794 348.3719Q292.84482 348.3719 292.87607 348.40314Q292.90732 348.41876 292.92294 348.46564Q292.93857 348.4969 292.93857 348.575Q292.9542 348.65314 292.9542 348.7469Q292.9542 348.825 292.93857 348.8875Q292.93857 348.9344 292.92294 348.98126Q292.92294 349.02814 292.90732 349.0594Q292.8917 349.09064 292.86044 349.1375Q292.8292 349.16876 292.65732 349.2469Q292.50107 349.3094 292.25107 349.3875Q292.00107 349.45 291.67294 349.4969Q291.34482 349.5594 290.96982 349.5594Q290.31357 349.5594 289.81357 349.3875Q289.3292 349.2 289.00107 348.84064Q288.67294 348.48126 288.50107 347.95Q288.3292 347.40314 288.3292 346.6844Q288.3292 346.0125 288.50107 345.46564Q288.67294 344.91876 289.00107 344.54376Q289.34482 344.16876 289.81357 343.96564Q290.28232 343.7625 290.86044 343.7625Q291.48544 343.7625 291.92294 343.96564Q292.36044 344.16876 292.6417 344.5125Q292.92294 344.84064 293.04794 345.29376Q293.17294 345.7469 293.17294 346.2625L293.17294 346.4344ZM292.2042 346.15314Q292.21982 345.3875 291.86044 344.96564Q291.5167 344.52814 290.81357 344.52814Q290.4542 344.52814 290.18857 344.66876Q289.92294 344.79376 289.73544 345.0125Q289.56357 345.23126 289.4542 345.52814Q289.36044 345.825 289.34482 346.15314L292.2042 346.15314ZM299.2042 349.3094Q299.2042 349.35626 299.17294 349.3875Q299.15732 349.41876 299.11044 349.45Q299.06357 349.46564 298.96982 349.46564Q298.8917 349.48126 298.78232 349.48126Q298.65732 349.48126 298.56357 349.46564Q298.48544 349.46564 298.42294 349.45Q298.37607 349.41876 298.34482 349.3875Q298.3292 349.35626 298.3292 349.3094L298.3292 348.60626Q297.92294 349.0594 297.46982 349.3094Q297.0167 349.5594 296.48544 349.5594Q295.90732 349.5594 295.50107 349.34064Q295.09482 349.10626 294.8292 348.73126Q294.5792 348.34064 294.4542 347.825Q294.34482 347.3094 294.34482 346.73126Q294.34482 346.04376 294.48544 345.4969Q294.6417 344.95 294.92294 344.575Q295.21982 344.1844 295.6417 343.98126Q296.06357 343.7625 296.62607 343.7625Q297.0792 343.7625 297.4542 343.96564Q297.84482 344.16876 298.21982 344.5594L298.21982 341.4969Q298.21982 341.45 298.23544 341.41876Q298.2667 341.3875 298.31357 341.3719Q298.37607 341.34064 298.46982 341.325Q298.56357 341.3094 298.7042 341.3094Q298.84482 341.3094 298.93857 341.325Q299.03232 341.34064 299.0792 341.3719Q299.1417 341.3875 299.17294 341.41876Q299.2042 341.45 299.2042 341.4969L299.2042 349.3094ZM298.21982 345.59064Q297.8292 345.10626 297.4542 344.85626Q297.09482 344.59064 296.7042 344.59064Q296.3292 344.59064 296.06357 344.77814Q295.81357 344.95 295.65732 345.2469Q295.50107 345.52814 295.42294 345.8875Q295.34482 346.2469 295.34482 346.6219Q295.34482 347.02814 295.40732 347.40314Q295.46982 347.77814 295.62607 348.075Q295.78232 348.3719 296.03232 348.5594Q296.28232 348.73126 296.65732 348.73126Q296.86044 348.73126 297.03232 348.6844Q297.2042 348.6219 297.3917 348.5125Q297.5792 348.3875 297.78232 348.2Q298.00107 347.9969 298.21982 347.7L298.21982 345.59064ZM305.21982 349.3094Q305.21982 349.35626 305.18857 349.3875Q305.17294 349.41876 305.11044 349.45Q305.06357 349.46564 304.96982 349.46564Q304.87607 349.48126 304.73544 349.48126Q304.59482 349.48126 304.50107 349.46564Q304.40732 349.46564 304.34482 349.45Q304.29794 349.41876 304.2667 349.3875Q304.25107 349.35626 304.25107 349.3094L304.25107 346.21564Q304.25107 345.7625 304.17294 345.4969Q304.11044 345.21564 303.96982 345.0125Q303.84482 344.8094 303.62607 344.71564Q303.42294 344.60626 303.1417 344.60626Q302.7667 344.60626 302.40732 344.8719Q302.04794 345.1219 301.6417 345.6219L301.6417 349.3094Q301.6417 349.35626 301.61044 349.3875Q301.59482 349.41876 301.54794 349.45Q301.50107 349.46564 301.40732 349.46564Q301.31357 349.48126 301.15732 349.48126Q301.0167 349.48126 300.92294 349.46564Q300.8292 349.46564 300.7667 349.45Q300.71982 349.41876 300.68857 349.3875Q300.67294 349.35626 300.67294 349.3094L300.67294 344.02814Q300.67294 343.98126 300.68857 343.95Q300.71982 343.91876 300.7667 343.90314Q300.81357 343.8719 300.8917 343.85626Q300.98544 343.84064 301.12607 343.84064Q301.25107 343.84064 301.3292 343.85626Q301.42294 343.8719 301.46982 343.90314Q301.5167 343.91876 301.53232 343.95Q301.54794 343.98126 301.54794 344.02814L301.54794 344.73126Q302.00107 344.23126 302.43857 343.9969Q302.87607 343.7625 303.3292 343.7625Q303.86044 343.7625 304.21982 343.95Q304.5792 344.1219 304.79794 344.41876Q305.03232 344.71564 305.12607 345.1219Q305.21982 345.52814 305.21982 346.09064L305.21982 349.3094ZM311.17294 346.4344Q311.17294 346.66876 311.06357 346.7625Q310.9542 346.85626 310.79794 346.85626L307.34482 346.85626Q307.34482 347.29376 307.42294 347.65314Q307.5167 347.9969 307.71982 348.2625Q307.93857 348.5125 308.2667 348.65314Q308.59482 348.77814 309.06357 348.77814Q309.43857 348.77814 309.73544 348.71564Q310.03232 348.65314 310.23544 348.575Q310.4542 348.4969 310.59482 348.4344Q310.73544 348.3719 310.79794 348.3719Q310.84482 348.3719 310.87607 348.40314Q310.90732 348.41876 310.92294 348.46564Q310.93857 348.4969 310.93857 348.575Q310.9542 348.65314 310.9542 348.7469Q310.9542 348.825 310.93857 348.8875Q310.93857 348.9344 310.92294 348.98126Q310.92294 349.02814 310.90732 349.0594Q310.8917 349.09064 310.86044 349.1375Q310.8292 349.16876 310.65732 349.2469Q310.50107 349.3094 310.25107 349.3875Q310.00107 349.45 309.67294 349.4969Q309.34482 349.5594 308.96982 349.5594Q308.31357 349.5594 307.81357 349.3875Q307.3292 349.2 307.00107 348.84064Q306.67294 348.48126 306.50107 347.95Q306.3292 347.40314 306.3292 346.6844Q306.3292 346.0125 306.50107 345.46564Q306.67294 344.91876 307.00107 344.54376Q307.34482 344.16876 307.81357 343.96564Q308.28232 343.7625 308.86044 343.7625Q309.48544 343.7625 309.92294 343.96564Q310.36044 344.16876 310.6417 344.5125Q310.92294 344.84064 311.04794 345.29376Q311.17294 345.7469 311.17294 346.2625L311.17294 346.4344ZM310.2042 346.15314Q310.21982 345.3875 309.86044 344.96564Q309.5167 344.52814 308.81357 344.52814Q308.4542 344.52814 308.18857 344.66876Q307.92294 344.79376 307.73544 345.0125Q307.56357 345.23126 307.4542 345.52814Q307.36044 345.825 307.34482 346.15314L310.2042 346.15314ZM315.98544 347.8719Q315.98544 348.27814 315.8292 348.59064Q315.68857 348.90314 315.40732 349.1219Q315.1417 349.34064 314.75107 349.45Q314.37607 349.5594 313.92294 349.5594Q313.6417 349.5594 313.37607 349.5125Q313.12607 349.48126 312.92294 349.41876Q312.71982 349.34064 312.5792 349.2625Q312.43857 349.1844 312.37607 349.1375Q312.31357 349.075 312.28232 348.96564Q312.25107 348.85626 312.25107 348.6844Q312.25107 348.575 312.2667 348.4969Q312.28232 348.41876 312.29794 348.3719Q312.31357 348.325 312.34482 348.3094Q312.37607 348.27814 312.42294 348.27814Q312.48544 348.27814 312.61044 348.35626Q312.73544 348.4344 312.92294 348.52814Q313.11044 348.6219 313.36044 348.71564Q313.61044 348.79376 313.93857 348.79376Q314.18857 348.79376 314.37607 348.7469Q314.5792 348.6844 314.71982 348.59064Q314.87607 348.48126 314.9542 348.325Q315.03232 348.15314 315.03232 347.95Q315.03232 347.71564 314.92294 347.575Q314.81357 347.41876 314.62607 347.3094Q314.43857 347.1844 314.2042 347.09064Q313.96982 346.9969 313.71982 346.90314Q313.46982 346.79376 313.21982 346.66876Q312.98544 346.54376 312.79794 346.3719Q312.61044 346.1844 312.50107 345.9344Q312.3917 345.6844 312.3917 345.325Q312.3917 345.0125 312.50107 344.73126Q312.62607 344.45 312.86044 344.2469Q313.11044 344.02814 313.46982 343.90314Q313.8292 343.7625 314.31357 343.7625Q314.5167 343.7625 314.71982 343.8094Q314.93857 343.84064 315.11044 343.8875Q315.28232 343.9344 315.3917 343.9969Q315.5167 344.0594 315.5792 344.10626Q315.6417 344.15314 315.65732 344.2Q315.68857 344.23126 315.68857 344.27814Q315.7042 344.3094 315.7042 344.3875Q315.71982 344.45 315.71982 344.54376Q315.71982 344.6375 315.7042 344.71564Q315.7042 344.77814 315.67294 344.825Q315.65732 344.8719 315.62607 344.90314Q315.61044 344.91876 315.56357 344.91876Q315.5167 344.91876 315.40732 344.85626Q315.31357 344.79376 315.15732 344.71564Q315.00107 344.6375 314.78232 344.575Q314.5792 344.5125 314.29794 344.5125Q314.04794 344.5125 313.86044 344.575Q313.67294 344.6219 313.54794 344.73126Q313.43857 344.825 313.37607 344.96564Q313.31357 345.10626 313.31357 345.27814Q313.31357 345.5125 313.42294 345.66876Q313.54794 345.8094 313.73544 345.9344Q313.92294 346.04376 314.15732 346.1375Q314.40732 346.23126 314.65732 346.34064Q314.90732 346.4344 315.1417 346.5594Q315.3917 346.6844 315.5792 346.85626Q315.7667 347.02814 315.87607 347.27814Q315.98544 347.52814 315.98544 347.8719ZM322.2042 349.3094Q322.2042 349.35626 322.17294 349.3875Q322.15732 349.41876 322.11044 349.45Q322.06357 349.46564 321.96982 349.46564Q321.8917 349.48126 321.78232 349.48126Q321.65732 349.48126 321.56357 349.46564Q321.48544 349.46564 321.42294 349.45Q321.37607 349.41876 321.34482 349.3875Q321.3292 349.35626 321.3292 349.3094L321.3292 348.60626Q320.92294 349.0594 320.46982 349.3094Q320.0167 349.5594 319.48544 349.5594Q318.90732 349.5594 318.50107 349.34064Q318.09482 349.10626 317.8292 348.73126Q317.5792 348.34064 317.4542 347.825Q317.34482 347.3094 317.34482 346.73126Q317.34482 346.04376 317.48544 345.4969Q317.6417 344.95 317.92294 344.575Q318.21982 344.1844 318.6417 343.98126Q319.06357 343.7625 319.62607 343.7625Q320.0792 343.7625 320.4542 343.96564Q320.84482 344.16876 321.21982 344.5594L321.21982 341.4969Q321.21982 341.45 321.23544 341.41876Q321.2667 341.3875 321.31357 341.3719Q321.37607 341.34064 321.46982 341.325Q321.56357 341.3094 321.7042 341.3094Q321.84482 341.3094 321.93857 341.325Q322.03232 341.34064 322.0792 341.3719Q322.1417 341.3875 322.17294 341.41876Q322.2042 341.45 322.2042 341.4969L322.2042 349.3094ZM321.21982 345.59064Q320.8292 345.10626 320.4542 344.85626Q320.09482 344.59064 319.7042 344.59064Q319.3292 344.59064 319.06357 344.77814Q318.81357 344.95 318.65732 345.2469Q318.50107 345.52814 318.42294 345.8875Q318.34482 346.2469 318.34482 346.6219Q318.34482 347.02814 318.40732 347.40314Q318.46982 347.77814 318.62607 348.075Q318.78232 348.3719 319.03232 348.5594Q319.28232 348.73126 319.65732 348.73126Q319.86044 348.73126 320.03232 348.6844Q320.2042 348.6219 320.3917 348.5125Q320.5792 348.3875 320.78232 348.2Q321.00107 347.9969 321.21982 347.7L321.21982 345.59064ZM327.65732 349.3094Q327.65732 349.3719 327.61044 349.41876Q327.56357 349.45 327.46982 349.46564Q327.3917 349.48126 327.23544 349.48126Q327.0792 349.48126 326.98544 349.46564Q326.90732 349.45 326.86044 349.41876Q326.81357 349.3719 326.81357 349.3094L326.81357 348.77814Q326.46982 349.15314 326.04794 349.35626Q325.62607 349.5594 325.15732 349.5594Q324.73544 349.5594 324.3917 349.45Q324.06357 349.34064 323.81357 349.1375Q323.5792 348.9344 323.4542 348.6375Q323.3292 348.34064 323.3292 347.95Q323.3292 347.5125 323.50107 347.1844Q323.68857 346.85626 324.0167 346.6375Q324.36044 346.41876 324.84482 346.3094Q325.34482 346.2 325.96982 346.2L326.68857 346.2L326.68857 345.79376Q326.68857 345.48126 326.62607 345.2469Q326.56357 345.0125 326.42294 344.8719Q326.28232 344.71564 326.04794 344.6375Q325.81357 344.54376 325.48544 344.54376Q325.12607 344.54376 324.84482 344.6375Q324.56357 344.71564 324.34482 344.825Q324.12607 344.91876 323.98544 345.0125Q323.84482 345.09064 323.7667 345.09064Q323.71982 345.09064 323.68857 345.075Q323.65732 345.04376 323.62607 344.9969Q323.61044 344.95 323.59482 344.8875Q323.5792 344.8094 323.5792 344.71564Q323.5792 344.575 323.59482 344.4969Q323.62607 344.40314 323.7042 344.325Q323.78232 344.2469 323.96982 344.15314Q324.17294 344.04376 324.42294 343.96564Q324.67294 343.8719 324.96982 343.825Q325.2667 343.7625 325.5792 343.7625Q326.1417 343.7625 326.53232 343.90314Q326.93857 344.02814 327.17294 344.27814Q327.42294 344.52814 327.53232 344.90314Q327.65732 345.2625 327.65732 345.7469L327.65732 349.3094ZM326.68857 346.90314L325.86044 346.90314Q325.46982 346.90314 325.17294 346.96564Q324.87607 347.02814 324.68857 347.16876Q324.50107 347.29376 324.40732 347.48126Q324.31357 347.66876 324.31357 347.90314Q324.31357 348.325 324.56357 348.575Q324.8292 348.8094 325.29794 348.8094Q325.68857 348.8094 326.00107 348.6219Q326.3292 348.41876 326.68857 348.0125L326.68857 346.90314ZM332.0792 349.45L331.37607 351.3875Q331.34482 351.48126 331.2042 351.52814Q331.06357 351.59064 330.7667 351.59064Q330.61044 351.59064 330.5167 351.575Q330.42294 351.5594 330.37607 351.5125Q330.3292 351.48126 330.31357 351.41876Q330.31357 351.3719 330.34482 351.27814L331.0792 349.45Q331.0167 349.41876 330.96982 349.3719Q330.92294 349.325 330.90732 349.2625L329.03232 344.21564Q328.98544 344.10626 328.98544 344.04376Q328.98544 343.96564 329.03232 343.91876Q329.0792 343.8719 329.17294 343.85626Q329.28232 343.84064 329.46982 343.84064Q329.6417 343.84064 329.73544 343.85626Q329.84482 343.8719 329.8917 343.90314Q329.9542 343.91876 329.96982 343.96564Q330.00107 343.9969 330.03232 344.075L331.54794 348.3094L331.56357 348.3094L333.0167 344.0594Q333.04794 343.9344 333.09482 343.90314Q333.1417 343.8719 333.23544 343.85626Q333.34482 343.84064 333.53232 343.84064Q333.7042 343.84064 333.79794 343.85626Q333.90732 343.8719 333.9542 343.91876Q334.0167 343.96564 334.0167 344.04376Q334.0167 344.10626 333.96982 344.2L332.0792 349.45Z" fill-rule="nonzero"/><path fill="#000000" d="M387.26562 342.29376Q387.26562 342.41876 387.25 342.4969Q387.23438 342.575 387.20312 342.6219Q387.1875 342.66876 387.14062 342.7Q387.10938 342.71564 387.0625 342.71564L384.92188 342.71564L384.92188 349.29376Q384.92188 349.34064 384.89062 349.3875Q384.875 349.41876 384.8125 349.4344Q384.76562 349.45 384.67188 349.46564Q384.57812 349.48126 384.42188 349.48126Q384.28125 349.48126 384.17188 349.46564Q384.07812 349.45 384.01562 349.4344Q383.96875 349.41876 383.9375 349.3875Q383.92188 349.34064 383.92188 349.29376L383.92188 342.71564L381.78125 342.71564Q381.73438 342.71564 381.70312 342.7Q381.67188 342.66876 381.64062 342.6219Q381.625 342.575 381.60938 342.4969Q381.59375 342.41876 381.59375 342.29376Q381.59375 342.1844 381.60938 342.10626Q381.625 342.0125 381.64062 341.96564Q381.67188 341.91876 381.70312 341.90314Q381.73438 341.8719 381.78125 341.8719L387.0625 341.8719Q387.10938 341.8719 387.14062 341.90314Q387.1875 341.91876 387.20312 341.96564Q387.23438 342.0125 387.25 342.10626Q387.26562 342.1844 387.26562 342.29376ZM392.9375 349.3094Q392.9375 349.35626 392.90625 349.3875Q392.89062 349.41876 392.82812 349.45Q392.78125 349.46564 392.6875 349.46564Q392.59375 349.48126 392.45312 349.48126Q392.3125 349.48126 392.21875 349.46564Q392.125 349.46564 392.0625 349.45Q392.01562 349.41876 391.98438 349.3875Q391.96875 349.35626 391.96875 349.3094L391.96875 346.21564Q391.96875 345.7625 391.89062 345.4969Q391.82812 345.21564 391.6875 345.0125Q391.5625 344.8094 391.34375 344.71564Q391.14062 344.60626 390.85938 344.60626Q390.48438 344.60626 390.125 344.8719Q389.76562 345.1219 389.35938 345.6219L389.35938 349.3094Q389.35938 349.35626 389.32812 349.3875Q389.3125 349.41876 389.26562 349.45Q389.21875 349.46564 389.125 349.46564Q389.03125 349.48126 388.875 349.48126Q388.73438 349.48126 388.64062 349.46564Q388.54688 349.46564 388.48438 349.45Q388.4375 349.41876 388.40625 349.3875Q388.39062 349.35626 388.39062 349.3094L388.39062 341.48126Q388.39062 341.4344 388.40625 341.40314Q388.4375 341.35626 388.48438 341.34064Q388.54688 341.3094 388.64062 341.3094Q388.73438 341.29376 388.875 341.29376Q389.03125 341.29376 389.125 341.3094Q389.21875 341.3094 389.26562 341.34064Q389.3125 341.35626 389.32812 341.40314Q389.35938 341.4344 389.35938 341.48126L389.35938 344.6375Q389.78125 344.2 390.20312 343.98126Q390.625 343.7625 391.04688 343.7625Q391.57812 343.7625 391.9375 343.95Q392.29688 344.1219 392.51562 344.41876Q392.75 344.71564 392.84375 345.1219Q392.9375 345.52814 392.9375 346.09064L392.9375 349.3094ZM398.92188 349.3094Q398.92188 349.35626 398.89062 349.3875Q398.875 349.41876 398.8125 349.45Q398.76562 349.46564 398.67188 349.46564Q398.59375 349.48126 398.46875 349.48126Q398.34375 349.48126 398.25 349.46564Q398.17188 349.46564 398.125 349.45Q398.07812 349.41876 398.04688 349.3875Q398.03125 349.35626 398.03125 349.3094L398.03125 348.60626Q397.57812 349.10626 397.14062 349.34064Q396.70312 349.5594 396.25 349.5594Q395.73438 349.5594 395.35938 349.3875Q395.0 349.21564 394.78125 348.91876Q394.5625 348.60626 394.46875 348.21564Q394.375 347.8094 394.375 347.23126L394.375 344.02814Q394.375 343.98126 394.39062 343.95Q394.40625 343.91876 394.46875 343.90314Q394.53125 343.8719 394.625 343.85626Q394.71875 343.84064 394.85938 343.84064Q395.0 343.84064 395.09375 343.85626Q395.1875 343.8719 395.23438 343.90314Q395.29688 343.91876 395.3125 343.95Q395.34375 343.98126 395.34375 344.02814L395.34375 347.10626Q395.34375 347.5594 395.40625 347.84064Q395.46875 348.1219 395.60938 348.325Q395.75 348.5125 395.95312 348.6219Q396.17188 348.73126 396.45312 348.73126Q396.8125 348.73126 397.17188 348.48126Q397.53125 348.21564 397.9375 347.71564L397.9375 344.02814Q397.9375 343.98126 397.95312 343.95Q397.98438 343.91876 398.03125 343.90314Q398.09375 343.8719 398.1875 343.85626Q398.28125 343.84064 398.42188 343.84064Q398.5625 343.84064 398.65625 343.85626Q398.75 343.8719 398.79688 343.90314Q398.85938 343.91876 398.89062 343.95Q398.92188 343.98126 398.92188 344.02814L398.92188 349.3094ZM403.48438 344.3719Q403.48438 344.4969 403.46875 344.59064Q403.46875 344.6844 403.45312 344.73126Q403.4375 344.77814 403.40625 344.8094Q403.375 344.825 403.32812 344.825Q403.28125 344.825 403.21875 344.8094Q403.15625 344.77814 403.0625 344.7625Q402.98438 344.73126 402.875 344.71564Q402.76562 344.6844 402.64062 344.6844Q402.5 344.6844 402.35938 344.7469Q402.21875 344.79376 402.0625 344.9344Q401.90625 345.0594 401.73438 345.29376Q401.5625 345.5125 401.35938 345.84064L401.35938 349.3094Q401.35938 349.35626 401.32812 349.3875Q401.3125 349.41876 401.26562 349.45Q401.21875 349.46564 401.125 349.46564Q401.03125 349.48126 400.875 349.48126Q400.73438 349.48126 400.64062 349.46564Q400.54688 349.46564 400.48438 349.45Q400.4375 349.41876 400.40625 349.3875Q400.39062 349.35626 400.39062 349.3094L400.39062 344.02814Q400.39062 343.98126 400.40625 343.95Q400.4375 343.91876 400.48438 343.90314Q400.53125 343.8719 400.60938 343.85626Q400.70312 343.84064 400.84375 343.84064Q400.96875 343.84064 401.04688 343.85626Q401.14062 343.8719 401.1875 343.90314Q401.23438 343.91876 401.25 343.95Q401.26562 343.98126 401.26562 344.02814L401.26562 344.79376Q401.48438 344.48126 401.67188 344.27814Q401.875 344.075 402.03125 343.96564Q402.20312 343.85626 402.375 343.8094Q402.54688 343.7625 402.71875 343.7625Q402.78125 343.7625 402.875 343.77814Q402.98438 343.77814 403.07812 343.8094Q403.1875 343.825 403.26562 343.85626Q403.35938 343.8875 403.39062 343.91876Q403.4375 343.95 403.4375 343.98126Q403.45312 343.9969 403.45312 344.04376Q403.46875 344.075 403.46875 344.16876Q403.48438 344.2469 403.48438 344.3719ZM407.70312 347.8719Q407.70312 348.27814 407.54688 348.59064Q407.40625 348.90314 407.125 349.1219Q406.85938 349.34064 406.46875 349.45Q406.09375 349.5594 405.64062 349.5594Q405.35938 349.5594 405.09375 349.5125Q404.84375 349.48126 404.64062 349.41876Q404.4375 349.34064 404.29688 349.2625Q404.15625 349.1844 404.09375 349.1375Q404.03125 349.075 404.0 348.96564Q403.96875 348.85626 403.96875 348.6844Q403.96875 348.575 403.98438 348.4969Q404.0 348.41876 404.01562 348.3719Q404.03125 348.325 404.0625 348.3094Q404.09375 348.27814 404.14062 348.27814Q404.20312 348.27814 404.32812 348.35626Q404.45312 348.4344 404.64062 348.52814Q404.82812 348.6219 405.07812 348.71564Q405.32812 348.79376 405.65625 348.79376Q405.90625 348.79376 406.09375 348.7469Q406.29688 348.6844 406.4375 348.59064Q406.59375 348.48126 406.67188 348.325Q406.75 348.15314 406.75 347.95Q406.75 347.71564 406.64062 347.575Q406.53125 347.41876 406.34375 347.3094Q406.15625 347.1844 405.92188 347.09064Q405.6875 346.9969 405.4375 346.90314Q405.1875 346.79376 404.9375 346.66876Q404.70312 346.54376 404.51562 346.3719Q404.32812 346.1844 404.21875 345.9344Q404.10938 345.6844 404.10938 345.325Q404.10938 345.0125 404.21875 344.73126Q404.34375 344.45 404.57812 344.2469Q404.82812 344.02814 405.1875 343.90314Q405.54688 343.7625 406.03125 343.7625Q406.23438 343.7625 406.4375 343.8094Q406.65625 343.84064 406.82812 343.8875Q407.0 343.9344 407.10938 343.9969Q407.23438 344.0594 407.29688 344.10626Q407.35938 344.15314 407.375 344.2Q407.40625 344.23126 407.40625 344.27814Q407.42188 344.3094 407.42188 344.3875Q407.4375 344.45 407.4375 344.54376Q407.4375 344.6375 407.42188 344.71564Q407.42188 344.77814 407.39062 344.825Q407.375 344.8719 407.34375 344.90314Q407.32812 344.91876 407.28125 344.91876Q407.23438 344.91876 407.125 344.85626Q407.03125 344.79376 406.875 344.71564Q406.71875 344.6375 406.5 344.575Q406.29688 344.5125 406.01562 344.5125Q405.76562 344.5125 405.57812 344.575Q405.39062 344.6219 405.26562 344.73126Q405.15625 344.825 405.09375 344.96564Q405.03125 345.10626 405.03125 345.27814Q405.03125 345.5125 405.14062 345.66876Q405.26562 345.8094 405.45312 345.9344Q405.64062 346.04376 405.875 346.1375Q406.125 346.23126 406.375 346.34064Q406.625 346.4344 406.85938 346.5594Q407.10938 346.6844 407.29688 346.85626Q407.48438 347.02814 407.59375 347.27814Q407.70312 347.52814 407.70312 347.8719ZM413.92188 349.3094Q413.92188 349.35626 413.89062 349.3875Q413.875 349.41876 413.82812 349.45Q413.78125 349.46564 413.6875 349.46564Q413.60938 349.48126 413.5 349.48126Q413.375 349.48126 413.28125 349.46564Q413.20312 349.46564 413.14062 349.45Q413.09375 349.41876 413.0625 349.3875Q413.04688 349.35626 413.04688 349.3094L413.04688 348.60626Q412.64062 349.0594 412.1875 349.3094Q411.73438 349.5594 411.20312 349.5594Q410.625 349.5594 410.21875 349.34064Q409.8125 349.10626 409.54688 348.73126Q409.29688 348.34064 409.17188 347.825Q409.0625 347.3094 409.0625 346.73126Q409.0625 346.04376 409.20312 345.4969Q409.35938 344.95 409.64062 344.575Q409.9375 344.1844 410.35938 343.98126Q410.78125 343.7625 411.34375 343.7625Q411.79688 343.7625 412.17188 343.96564Q412.5625 344.16876 412.9375 344.5594L412.9375 341.4969Q412.9375 341.45 412.95312 341.41876Q412.98438 341.3875 413.03125 341.3719Q413.09375 341.34064 413.1875 341.325Q413.28125 341.3094 413.42188 341.3094Q413.5625 341.3094 413.65625 341.325Q413.75 341.34064 413.79688 341.3719Q413.85938 341.3875 413.89062 341.41876Q413.92188 341.45 413.92188 341.4969L413.92188 349.3094ZM412.9375 345.59064Q412.54688 345.10626 412.17188 344.85626Q411.8125 344.59064 411.42188 344.59064Q411.04688 344.59064 410.78125 344.77814Q410.53125 344.95 410.375 345.2469Q410.21875 345.52814 410.14062 345.8875Q410.0625 346.2469 410.0625 346.6219Q410.0625 347.02814 410.125 347.40314Q410.1875 347.77814 410.34375 348.075Q410.5 348.3719 410.75 348.5594Q411.0 348.73126 411.375 348.73126Q411.57812 348.73126 411.75 348.6844Q411.92188 348.6219 412.10938 348.5125Q412.29688 348.3875 412.5 348.2Q412.71875 347.9969 412.9375 347.7L412.9375 345.59064ZM419.375 349.3094Q419.375 349.3719 419.32812 349.41876Q419.28125 349.45 419.1875 349.46564Q419.10938 349.48126 418.95312 349.48126Q418.79688 349.48126 418.70312 349.46564Q418.625 349.45 418.57812 349.41876Q418.53125 349.3719 418.53125 349.3094L418.53125 348.77814Q418.1875 349.15314 417.76562 349.35626Q417.34375 349.5594 416.875 349.5594Q416.45312 349.5594 416.10938 349.45Q415.78125 349.34064 415.53125 349.1375Q415.29688 348.9344 415.17188 348.6375Q415.04688 348.34064 415.04688 347.95Q415.04688 347.5125 415.21875 347.1844Q415.40625 346.85626 415.73438 346.6375Q416.07812 346.41876 416.5625 346.3094Q417.0625 346.2 417.6875 346.2L418.40625 346.2L418.40625 345.79376Q418.40625 345.48126 418.34375 345.2469Q418.28125 345.0125 418.14062 344.8719Q418.0 344.71564 417.76562 344.6375Q417.53125 344.54376 417.20312 344.54376Q416.84375 344.54376 416.5625 344.6375Q416.28125 344.71564 416.0625 344.825Q415.84375 344.91876 415.70312 345.0125Q415.5625 345.09064 415.48438 345.09064Q415.4375 345.09064 415.40625 345.075Q415.375 345.04376 415.34375 344.9969Q415.32812 344.95 415.3125 344.8875Q415.29688 344.8094 415.29688 344.71564Q415.29688 344.575 415.3125 344.4969Q415.34375 344.40314 415.42188 344.325Q415.5 344.2469 415.6875 344.15314Q415.89062 344.04376 416.14062 343.96564Q416.39062 343.8719 416.6875 343.825Q416.98438 343.7625 417.29688 343.7625Q417.85938 343.7625 418.25 343.90314Q418.65625 344.02814 418.89062 344.27814Q419.14062 344.52814 419.25 344.90314Q419.375 345.2625 419.375 345.7469L419.375 349.3094ZM418.40625 346.90314L417.57812 346.90314Q417.1875 346.90314 416.89062 346.96564Q416.59375 347.02814 416.40625 347.16876Q416.21875 347.29376 416.125 347.48126Q416.03125 347.66876 416.03125 347.90314Q416.03125 348.325 416.28125 348.575Q416.54688 348.8094 417.01562 348.8094Q417.40625 348.8094 417.71875 348.6219Q418.04688 348.41876 418.40625 348.0125L418.40625 346.90314ZM423.79688 349.45L423.09375 351.3875Q423.0625 351.48126 422.92188 351.52814Q422.78125 351.59064 422.48438 351.59064Q422.32812 351.59064 422.23438 351.575Q422.14062 351.5594 422.09375 351.5125Q422.04688 351.48126 422.03125 351.41876Q422.03125 351.3719 422.0625 351.27814L422.79688 349.45Q422.73438 349.41876 422.6875 349.3719Q422.64062 349.325 422.625 349.2625L420.75 344.21564Q420.70312 344.10626 420.70312 344.04376Q420.70312 343.96564 420.75 343.91876Q420.79688 343.8719 420.89062 343.85626Q421.0 343.84064 421.1875 343.84064Q421.35938 343.84064 421.45312 343.85626Q421.5625 343.8719 421.60938 343.90314Q421.67188 343.91876 421.6875 343.96564Q421.71875 343.9969 421.75 344.075L423.26562 348.3094L423.28125 348.3094L424.73438 344.0594Q424.76562 343.9344 424.8125 343.90314Q424.85938 343.8719 424.95312 343.85626Q425.0625 343.84064 425.25 343.84064Q425.42188 343.84064 425.51562 343.85626Q425.625 343.8719 425.67188 343.91876Q425.73438 343.96564 425.73438 344.04376Q425.73438 344.10626 425.6875 344.2L423.79688 349.45Z" fill-rule="nonzero"/><path fill="#000000" d="M491.71768 342.29376Q491.71768 342.41876 491.70206 342.4969Q491.68643 342.575 491.65518 342.6219Q491.62393 342.66876 491.57706 342.7Q491.5458 342.71564 491.51456 342.71564L488.7333 342.71564L488.7333 345.29376L491.3583 345.29376Q491.40518 345.29376 491.43643 345.325Q491.4833 345.34064 491.49893 345.3875Q491.53018 345.4344 491.5458 345.5125Q491.56143 345.59064 491.56143 345.71564Q491.56143 345.825 491.5458 345.90314Q491.53018 345.98126 491.49893 346.04376Q491.4833 346.09064 491.43643 346.1219Q491.40518 346.1375 491.3583 346.1375L488.7333 346.1375L488.7333 349.29376Q488.7333 349.34064 488.70206 349.3875Q488.68643 349.41876 488.62393 349.4344Q488.57706 349.45 488.4833 349.46564Q488.38956 349.48126 488.2333 349.48126Q488.09268 349.48126 487.9833 349.46564Q487.88956 349.45 487.82706 349.4344Q487.78018 349.41876 487.74893 349.3875Q487.7333 349.34064 487.7333 349.29376L487.7333 342.27814Q487.7333 342.04376 487.84268 341.96564Q487.96768 341.8719 488.1083 341.8719L491.51456 341.8719Q491.5458 341.8719 491.57706 341.90314Q491.62393 341.91876 491.65518 341.96564Q491.68643 342.0125 491.70206 342.10626Q491.71768 342.1844 491.71768 342.29376ZM496.70206 344.3719Q496.70206 344.4969 496.68643 344.59064Q496.68643 344.6844 496.6708 344.73126Q496.65518 344.77814 496.62393 344.8094Q496.59268 344.825 496.5458 344.825Q496.49893 344.825 496.43643 344.8094Q496.37393 344.77814 496.28018 344.7625Q496.20206 344.73126 496.09268 344.71564Q495.9833 344.6844 495.8583 344.6844Q495.71768 344.6844 495.57706 344.7469Q495.43643 344.79376 495.28018 344.9344Q495.12393 345.0594 494.95206 345.29376Q494.78018 345.5125 494.57706 345.84064L494.57706 349.3094Q494.57706 349.35626 494.5458 349.3875Q494.53018 349.41876 494.4833 349.45Q494.43643 349.46564 494.34268 349.46564Q494.24893 349.48126 494.09268 349.48126Q493.95206 349.48126 493.8583 349.46564Q493.76456 349.46564 493.70206 349.45Q493.65518 349.41876 493.62393 349.3875Q493.6083 349.35626 493.6083 349.3094L493.6083 344.02814Q493.6083 343.98126 493.62393 343.95Q493.65518 343.91876 493.70206 343.90314Q493.74893 343.8719 493.82706 343.85626Q493.9208 343.84064 494.06143 343.84064Q494.18643 343.84064 494.26456 343.85626Q494.3583 343.8719 494.40518 343.90314Q494.45206 343.91876 494.46768 343.95Q494.4833 343.98126 494.4833 344.02814L494.4833 344.79376Q494.70206 344.48126 494.88956 344.27814Q495.09268 344.075 495.24893 343.96564Q495.4208 343.85626 495.59268 343.8094Q495.76456 343.7625 495.93643 343.7625Q495.99893 343.7625 496.09268 343.77814Q496.20206 343.77814 496.2958 343.8094Q496.40518 343.825 496.4833 343.85626Q496.57706 343.8875 496.6083 343.91876Q496.65518 343.95 496.65518 343.98126Q496.6708 343.9969 496.6708 344.04376Q496.68643 344.075 496.68643 344.16876Q496.70206 344.2469 496.70206 344.3719ZM498.57706 349.3094Q498.57706 349.35626 498.5458 349.3875Q498.53018 349.41876 498.4833 349.45Q498.43643 349.46564 498.34268 349.46564Q498.24893 349.48126 498.09268 349.48126Q497.95206 349.48126 497.8583 349.46564Q497.76456 349.46564 497.70206 349.45Q497.65518 349.41876 497.62393 349.3875Q497.6083 349.35626 497.6083 349.3094L497.6083 344.02814Q497.6083 343.98126 497.62393 343.95Q497.65518 343.91876 497.70206 343.90314Q497.76456 343.8719 497.8583 343.85626Q497.95206 343.84064 498.09268 343.84064Q498.24893 343.84064 498.34268 343.85626Q498.43643 343.8719 498.4833 343.90314Q498.53018 343.91876 498.5458 343.95Q498.57706 343.98126 498.57706 344.02814L498.57706 349.3094ZM498.68643 342.2469Q498.68643 342.59064 498.56143 342.71564Q498.43643 342.84064 498.09268 342.84064Q497.74893 342.84064 497.62393 342.71564Q497.49893 342.59064 497.49893 342.2625Q497.49893 341.91876 497.62393 341.79376Q497.74893 341.66876 498.1083 341.66876Q498.43643 341.66876 498.56143 341.79376Q498.68643 341.91876 498.68643 342.2469ZM505.13956 349.3094Q505.13956 349.35626 505.1083 349.3875Q505.09268 349.41876 505.0458 349.45Q504.99893 349.46564 504.90518 349.46564Q504.82706 349.48126 504.71768 349.48126Q504.59268 349.48126 504.49893 349.46564Q504.4208 349.46564 504.3583 349.45Q504.31143 349.41876 504.28018 349.3875Q504.26456 349.35626 504.26456 349.3094L504.26456 348.60626Q503.8583 349.0594 503.40518 349.3094Q502.95206 349.5594 502.4208 349.5594Q501.84268 349.5594 501.43643 349.34064Q501.03018 349.10626 500.76456 348.73126Q500.51456 348.34064 500.38956 347.825Q500.28018 347.3094 500.28018 346.73126Q500.28018 346.04376 500.4208 345.4969Q500.57706 344.95 500.8583 344.575Q501.15518 344.1844 501.57706 343.98126Q501.99893 343.7625 502.56143 343.7625Q503.01456 343.7625 503.38956 343.96564Q503.78018 344.16876 504.15518 344.5594L504.15518 341.4969Q504.15518 341.45 504.1708 341.41876Q504.20206 341.3875 504.24893 341.3719Q504.31143 341.34064 504.40518 341.325Q504.49893 341.3094 504.63956 341.3094Q504.78018 341.3094 504.87393 341.325Q504.96768 341.34064 505.01456 341.3719Q505.07706 341.3875 505.1083 341.41876Q505.13956 341.45 505.13956 341.4969L505.13956 349.3094ZM504.15518 345.59064Q503.76456 345.10626 503.38956 344.85626Q503.03018 344.59064 502.63956 344.59064Q502.26456 344.59064 501.99893 344.77814Q501.74893 344.95 501.59268 345.2469Q501.43643 345.52814 501.3583 345.8875Q501.28018 346.2469 501.28018 346.6219Q501.28018 347.02814 501.34268 347.40314Q501.40518 347.77814 501.56143 348.075Q501.71768 348.3719 501.96768 348.5594Q502.21768 348.73126 502.59268 348.73126Q502.7958 348.73126 502.96768 348.6844Q503.13956 348.6219 503.32706 348.5125Q503.51456 348.3875 503.71768 348.2Q503.93643 347.9969 504.15518 347.7L504.15518 345.59064ZM510.59268 349.3094Q510.59268 349.3719 510.5458 349.41876Q510.49893 349.45 510.40518 349.46564Q510.32706 349.48126 510.1708 349.48126Q510.01456 349.48126 509.9208 349.46564Q509.84268 349.45 509.7958 349.41876Q509.74893 349.3719 509.74893 349.3094L509.74893 348.77814Q509.40518 349.15314 508.9833 349.35626Q508.56143 349.5594 508.09268 349.5594Q507.6708 349.5594 507.32706 349.45Q506.99893 349.34064 506.74893 349.1375Q506.51456 348.9344 506.38956 348.6375Q506.26456 348.34064 506.26456 347.95Q506.26456 347.5125 506.43643 347.1844Q506.62393 346.85626 506.95206 346.6375Q507.2958 346.41876 507.78018 346.3094Q508.28018 346.2 508.90518 346.2L509.62393 346.2L509.62393 345.79376Q509.62393 345.48126 509.56143 345.2469Q509.49893 345.0125 509.3583 344.8719Q509.21768 344.71564 508.9833 344.6375Q508.74893 344.54376 508.4208 344.54376Q508.06143 344.54376 507.78018 344.6375Q507.49893 344.71564 507.28018 344.825Q507.06143 344.91876 506.9208 345.0125Q506.78018 345.09064 506.70206 345.09064Q506.65518 345.09064 506.62393 345.075Q506.59268 345.04376 506.56143 344.9969Q506.5458 344.95 506.53018 344.8875Q506.51456 344.8094 506.51456 344.71564Q506.51456 344.575 506.53018 344.4969Q506.56143 344.40314 506.63956 344.325Q506.71768 344.2469 506.90518 344.15314Q507.1083 344.04376 507.3583 343.96564Q507.6083 343.8719 507.90518 343.825Q508.20206 343.7625 508.51456 343.7625Q509.07706 343.7625 509.46768 343.90314Q509.87393 344.02814 510.1083 344.27814Q510.3583 344.52814 510.46768 344.90314Q510.59268 345.2625 510.59268 345.7469L510.59268 349.3094ZM509.62393 346.90314L508.7958 346.90314Q508.40518 346.90314 508.1083 346.96564Q507.81143 347.02814 507.62393 347.16876Q507.43643 347.29376 507.34268 347.48126Q507.24893 347.66876 507.24893 347.90314Q507.24893 348.325 507.49893 348.575Q507.76456 348.8094 508.2333 348.8094Q508.62393 348.8094 508.93643 348.6219Q509.26456 348.41876 509.62393 348.0125L509.62393 346.90314ZM515.0145 349.45L514.3114 351.3875Q514.28015 351.48126 514.1395 351.52814Q513.9989 351.59064 513.702 351.59064Q513.5458 351.59064 513.452 351.575Q513.3583 351.5594 513.3114 351.5125Q513.2645 351.48126 513.2489 351.41876Q513.2489 351.3719 513.28015 351.27814L514.0145 349.45Q513.952 349.41876 513.90515 349.3719Q513.8583 349.325 513.84265 349.2625L511.96768 344.21564Q511.9208 344.10626 511.9208 344.04376Q511.9208 343.96564 511.96768 343.91876Q512.0145 343.8719 512.1083 343.85626Q512.21765 343.84064 512.40515 343.84064Q512.577 343.84064 512.6708 343.85626Q512.78015 343.8719 512.827 343.90314Q512.8895 343.91876 512.90515 343.96564Q512.9364 343.9969 512.96765 344.075L514.4833 348.3094L514.4989 348.3094L515.952 344.0594Q515.9833 343.9344 516.03015 343.90314Q516.077 343.8719 516.1708 343.85626Q516.28015 343.84064 516.46765 343.84064Q516.6395 343.84064 516.7333 343.85626Q516.84265 343.8719 516.8895 343.91876Q516.952 343.96564 516.952 344.04376Q516.952 344.10626 516.90515 344.2L515.0145 349.45Z" fill-rule="nonzero"/><path fill="#000000" d="M583.5135 347.325Q583.5135 347.85626 583.31036 348.27814Q583.12286 348.6844 582.7635 348.98126Q582.41974 349.2625 581.951 349.41876Q581.48224 349.5594 580.93536 349.5594Q580.56036 349.5594 580.23224 349.4969Q579.9041 349.4344 579.6541 349.34064Q579.4041 349.2469 579.2166 349.15314Q579.04474 349.04376 578.98224 348.98126Q578.91974 348.90314 578.8885 348.79376Q578.85724 348.6844 578.85724 348.5125Q578.85724 348.3719 578.85724 348.29376Q578.87286 348.2 578.8885 348.15314Q578.91974 348.10626 578.951 348.09064Q578.99786 348.0594 579.04474 348.0594Q579.12286 348.0594 579.2635 348.16876Q579.41974 348.2625 579.6541 348.3875Q579.8885 348.4969 580.2166 348.60626Q580.54474 348.7 580.98224 348.7Q581.31036 348.7 581.576 348.6219Q581.85724 348.52814 582.04474 348.3719Q582.24786 348.2 582.35724 347.96564Q582.4666 347.73126 582.4666 347.4344Q582.4666 347.10626 582.31036 346.8875Q582.16974 346.65314 581.91974 346.48126Q581.68536 346.3094 581.37286 346.16876Q581.076 346.02814 580.74786 345.8719Q580.43536 345.71564 580.12286 345.54376Q579.826 345.35626 579.576 345.1219Q579.3416 344.8719 579.18536 344.54376Q579.04474 344.2 579.04474 343.7469Q579.04474 343.2625 579.2166 342.90314Q579.3885 342.52814 579.68536 342.27814Q579.99786 342.0125 580.41974 341.8875Q580.85724 341.7625 581.3416 341.7625Q581.5916 341.7625 581.8416 341.8094Q582.10724 341.84064 582.326 341.91876Q582.56036 341.9969 582.73224 342.09064Q582.9041 342.16876 582.951 342.23126Q583.0135 342.27814 583.0291 342.3094Q583.06036 342.34064 583.06036 342.40314Q583.076 342.45 583.076 342.52814Q583.0916 342.59064 583.0916 342.7Q583.0916 342.8094 583.076 342.8875Q583.076 342.96564 583.04474 343.02814Q583.0291 343.075 582.99786 343.10626Q582.9666 343.1375 582.93536 343.1375Q582.87286 343.1375 582.73224 343.0594Q582.5916 342.96564 582.3885 342.8719Q582.18536 342.7625 581.91974 342.6844Q581.6541 342.59064 581.31036 342.59064Q580.99786 342.59064 580.7635 342.6844Q580.5291 342.7625 580.37286 342.90314Q580.2166 343.04376 580.1385 343.2469Q580.06036 343.4344 580.06036 343.65314Q580.06036 343.96564 580.201 344.2Q580.35724 344.41876 580.5916 344.60626Q580.8416 344.77814 581.1541 344.91876Q581.4666 345.0594 581.7791 345.21564Q582.10724 345.3719 582.41974 345.54376Q582.73224 345.71564 582.9666 345.96564Q583.2166 346.21564 583.35724 346.54376Q583.5135 346.8719 583.5135 347.325ZM589.31036 349.3094Q589.31036 349.3719 589.2635 349.41876Q589.2166 349.45 589.12286 349.46564Q589.04474 349.48126 588.8885 349.48126Q588.73224 349.48126 588.6385 349.46564Q588.56036 349.45 588.5135 349.41876Q588.4666 349.3719 588.4666 349.3094L588.4666 348.77814Q588.12286 349.15314 587.701 349.35626Q587.2791 349.5594 586.81036 349.5594Q586.3885 349.5594 586.04474 349.45Q585.7166 349.34064 585.4666 349.1375Q585.23224 348.9344 585.10724 348.6375Q584.98224 348.34064 584.98224 347.95Q584.98224 347.5125 585.1541 347.1844Q585.3416 346.85626 585.66974 346.6375Q586.0135 346.41876 586.49786 346.3094Q586.99786 346.2 587.62286 346.2L588.3416 346.2L588.3416 345.79376Q588.3416 345.48126 588.2791 345.2469Q588.2166 345.0125 588.076 344.8719Q587.93536 344.71564 587.701 344.6375Q587.4666 344.54376 587.1385 344.54376Q586.7791 344.54376 586.49786 344.6375Q586.2166 344.71564 585.99786 344.825Q585.7791 344.91876 585.6385 345.0125Q585.49786 345.09064 585.41974 345.09064Q585.37286 345.09064 585.3416 345.075Q585.31036 345.04376 585.2791 344.9969Q585.2635 344.95 585.24786 344.8875Q585.23224 344.8094 585.23224 344.71564Q585.23224 344.575 585.24786 344.4969Q585.2791 344.40314 585.35724 344.325Q585.43536 344.2469 585.62286 344.15314Q585.826 344.04376 586.076 343.96564Q586.326 343.8719 586.62286 343.825Q586.91974 343.7625 587.23224 343.7625Q587.79474 343.7625 588.18536 343.90314Q588.5916 344.02814 588.826 344.27814Q589.076 344.52814 589.18536 344.90314Q589.31036 345.2625 589.31036 345.7469L589.31036 349.3094ZM588.3416 346.90314L587.5135 346.90314Q587.12286 346.90314 586.826 346.96564Q586.5291 347.02814 586.3416 347.16876Q586.1541 347.29376 586.06036 347.48126Q585.9666 347.66876 585.9666 347.90314Q585.9666 348.325 586.2166 348.575Q586.48224 348.8094 586.951 348.8094Q587.3416 348.8094 587.6541 348.6219Q587.98224 348.41876 588.3416 348.0125L588.3416 346.90314ZM594.076 348.91876Q594.076 349.09064 594.04474 349.1844Q594.0291 349.27814 593.98224 349.325Q593.93536 349.3719 593.8416 349.41876Q593.74786 349.46564 593.62286 349.48126Q593.5135 349.5125 593.37286 349.52814Q593.23224 349.54376 593.10724 349.54376Q592.68536 349.54376 592.3885 349.4344Q592.10724 349.325 591.91974 349.10626Q591.73224 348.8875 591.6385 348.5594Q591.56036 348.21564 591.56036 347.7625L591.56036 344.6844L590.826 344.6844Q590.73224 344.6844 590.66974 344.59064Q590.62286 344.4969 590.62286 344.27814Q590.62286 344.16876 590.6385 344.09064Q590.6541 344.0125 590.66974 343.96564Q590.701 343.91876 590.73224 343.90314Q590.7791 343.8719 590.826 343.8719L591.56036 343.8719L591.56036 342.6219Q591.56036 342.575 591.576 342.54376Q591.60724 342.5125 591.6541 342.4969Q591.7166 342.46564 591.81036 342.45Q591.9041 342.4344 592.04474 342.4344Q592.18536 342.4344 592.2791 342.45Q592.37286 342.46564 592.41974 342.4969Q592.48224 342.5125 592.49786 342.54376Q592.5291 342.575 592.5291 342.6219L592.5291 343.8719L593.8885 343.8719Q593.93536 343.8719 593.9666 343.90314Q593.99786 343.91876 594.0135 343.96564Q594.04474 344.0125 594.06036 344.09064Q594.076 344.16876 594.076 344.27814Q594.076 344.4969 594.0135 344.59064Q593.9666 344.6844 593.8885 344.6844L592.5291 344.6844L592.5291 347.6219Q592.5291 348.16876 592.68536 348.45Q592.85724 348.71564 593.2635 348.71564Q593.4041 348.71564 593.49786 348.7Q593.60724 348.66876 593.68536 348.6375Q593.7791 348.60626 593.826 348.59064Q593.8885 348.5594 593.93536 348.5594Q593.9666 348.5594 593.99786 348.575Q594.0291 348.59064 594.0291 348.6375Q594.04474 348.66876 594.06036 348.7469Q594.076 348.8094 594.076 348.91876ZM599.85724 349.3094Q599.85724 349.35626 599.826 349.3875Q599.81036 349.41876 599.74786 349.45Q599.701 349.46564 599.60724 349.46564Q599.5291 349.48126 599.4041 349.48126Q599.2791 349.48126 599.18536 349.46564Q599.10724 349.46564 599.06036 349.45Q599.0135 349.41876 598.98224 349.3875Q598.9666 349.35626 598.9666 349.3094L598.9666 348.60626Q598.5135 349.10626 598.076 349.34064Q597.6385 349.5594 597.18536 349.5594Q596.66974 349.5594 596.29474 349.3875Q595.93536 349.21564 595.7166 348.91876Q595.49786 348.60626 595.4041 348.21564Q595.31036 347.8094 595.31036 347.23126L595.31036 344.02814Q595.31036 343.98126 595.326 343.95Q595.3416 343.91876 595.4041 343.90314Q595.4666 343.8719 595.56036 343.85626Q595.6541 343.84064 595.79474 343.84064Q595.93536 343.84064 596.0291 343.85626Q596.12286 343.8719 596.16974 343.90314Q596.23224 343.91876 596.24786 343.95Q596.2791 343.98126 596.2791 344.02814L596.2791 347.10626Q596.2791 347.5594 596.3416 347.84064Q596.4041 348.1219 596.54474 348.325Q596.68536 348.5125 596.8885 348.6219Q597.10724 348.73126 597.3885 348.73126Q597.74786 348.73126 598.10724 348.48126Q598.4666 348.21564 598.87286 347.71564L598.87286 344.02814Q598.87286 343.98126 598.8885 343.95Q598.91974 343.91876 598.9666 343.90314Q599.0291 343.8719 599.12286 343.85626Q599.2166 343.84064 599.35724 343.84064Q599.49786 343.84064 599.5916 343.85626Q599.68536 343.8719 599.73224 343.90314Q599.79474 343.91876 599.826 343.95Q599.85724 343.98126 599.85724 344.02814L599.85724 349.3094ZM604.41974 344.3719Q604.41974 344.4969 604.4041 344.59064Q604.4041 344.6844 604.3885 344.73126Q604.37286 344.77814 604.3416 344.8094Q604.31036 344.825 604.2635 344.825Q604.2166 344.825 604.1541 344.8094Q604.0916 344.77814 603.99786 344.7625Q603.91974 344.73126 603.81036 344.71564Q603.701 344.6844 603.576 344.6844Q603.43536 344.6844 603.29474 344.7469Q603.1541 344.79376 602.99786 344.9344Q602.8416 345.0594 602.66974 345.29376Q602.49786 345.5125 602.29474 345.84064L602.29474 349.3094Q602.29474 349.35626 602.2635 349.3875Q602.24786 349.41876 602.201 349.45Q602.1541 349.46564 602.06036 349.46564Q601.9666 349.48126 601.81036 349.48126Q601.66974 349.48126 601.576 349.46564Q601.48224 349.46564 601.41974 349.45Q601.37286 349.41876 601.3416 349.3875Q601.326 349.35626 601.326 349.3094L601.326 344.02814Q601.326 343.98126 601.3416 343.95Q601.37286 343.91876 601.41974 343.90314Q601.4666 343.8719 601.54474 343.85626Q601.6385 343.84064 601.7791 343.84064Q601.9041 343.84064 601.98224 343.85626Q602.076 343.8719 602.12286 343.90314Q602.16974 343.91876 602.18536 343.95Q602.201 343.98126 602.201 344.02814L602.201 344.79376Q602.41974 344.48126 602.60724 344.27814Q602.81036 344.075 602.9666 343.96564Q603.1385 343.85626 603.31036 343.8094Q603.48224 343.7625 603.6541 343.7625Q603.7166 343.7625 603.81036 343.77814Q603.91974 343.77814 604.0135 343.8094Q604.12286 343.825 604.201 343.85626Q604.29474 343.8875 604.326 343.91876Q604.37286 343.95 604.37286 343.98126Q604.3885 343.9969 604.3885 344.04376Q604.4041 344.075 604.4041 344.16876Q604.41974 344.2469 604.41974 344.3719ZM609.85724 349.3094Q609.85724 349.35626 609.826 349.3875Q609.81036 349.41876 609.7635 349.45Q609.7166 349.46564 609.62286 349.46564Q609.54474 349.48126 609.43536 349.48126Q609.31036 349.48126 609.2166 349.46564Q609.1385 349.46564 609.076 349.45Q609.0291 349.41876 608.99786 349.3875Q608.98224 349.35626 608.98224 349.3094L608.98224 348.60626Q608.576 349.0594 608.12286 349.3094Q607.66974 349.5594 607.1385 349.5594Q606.56036 349.5594 606.1541 349.34064Q605.74786 349.10626 605.48224 348.73126Q605.23224 348.34064 605.10724 347.825Q604.99786 347.3094 604.99786 346.73126Q604.99786 346.04376 605.1385 345.4969Q605.29474 344.95 605.576 344.575Q605.87286 344.1844 606.29474 343.98126Q606.7166 343.7625 607.2791 343.7625Q607.73224 343.7625 608.10724 343.96564Q608.49786 344.16876 608.87286 344.5594L608.87286 341.4969Q608.87286 341.45 608.8885 341.41876Q608.91974 341.3875 608.9666 341.3719Q609.0291 341.34064 609.12286 341.325Q609.2166 341.3094 609.35724 341.3094Q609.49786 341.3094 609.5916 341.325Q609.68536 341.34064 609.73224 341.3719Q609.79474 341.3875 609.826 341.41876Q609.85724 341.45 609.85724 341.4969L609.85724 349.3094ZM608.87286 345.59064Q608.48224 345.10626 608.10724 344.85626Q607.74786 344.59064 607.35724 344.59064Q606.98224 344.59064 606.7166 344.77814Q606.4666 344.95 606.31036 345.2469Q606.1541 345.52814 606.076 345.8875Q605.99786 346.2469 605.99786 346.6219Q605.99786 347.02814 606.06036 347.40314Q606.12286 347.77814 606.2791 348.075Q606.43536 348.3719 606.68536 348.5594Q606.93536 348.73126 607.31036 348.73126Q607.5135 348.73126 607.68536 348.6844Q607.85724 348.6219 608.04474 348.5125Q608.23224 348.3875 608.43536 348.2Q608.6541 347.9969 608.87286 347.7L608.87286 345.59064ZM615.31036 349.3094Q615.31036 349.3719 615.2635 349.41876Q615.2166 349.45 615.12286 349.46564Q615.04474 349.48126 614.8885 349.48126Q614.73224 349.48126 614.6385 349.46564Q614.56036 349.45 614.5135 349.41876Q614.4666 349.3719 614.4666 349.3094L614.4666 348.77814Q614.12286 349.15314 613.701 349.35626Q613.2791 349.5594 612.81036 349.5594Q612.3885 349.5594 612.04474 349.45Q611.7166 349.34064 611.4666 349.1375Q611.23224 348.9344 611.10724 348.6375Q610.98224 348.34064 610.98224 347.95Q610.98224 347.5125 611.1541 347.1844Q611.3416 346.85626 611.66974 346.6375Q612.0135 346.41876 612.49786 346.3094Q612.99786 346.2 613.62286 346.2L614.3416 346.2L614.3416 345.79376Q614.3416 345.48126 614.2791 345.2469Q614.2166 345.0125 614.076 344.8719Q613.93536 344.71564 613.701 344.6375Q613.4666 344.54376 613.1385 344.54376Q612.7791 344.54376 612.49786 344.6375Q612.2166 344.71564 611.99786 344.825Q611.7791 344.91876 611.6385 345.0125Q611.49786 345.09064 611.41974 345.09064Q611.37286 345.09064 611.3416 345.075Q611.31036 345.04376 611.2791 344.9969Q611.2635 344.95 611.24786 344.8875Q611.23224 344.8094 611.23224 344.71564Q611.23224 344.575 611.24786 344.4969Q611.2791 344.40314 611.35724 344.325Q611.43536 344.2469 611.62286 344.15314Q611.826 344.04376 612.076 343.96564Q612.326 343.8719 612.62286 343.825Q612.91974 343.7625 613.23224 343.7625Q613.79474 343.7625 614.18536 343.90314Q614.5916 344.02814 614.826 344.27814Q615.076 344.52814 615.18536 344.90314Q615.31036 345.2625 615.31036 345.7469L615.31036 349.3094ZM614.3416 346.90314L613.5135 346.90314Q613.12286 346.90314 612.826 346.96564Q612.5291 347.02814 612.3416 347.16876Q612.1541 347.29376 612.06036 347.48126Q611.9666 347.66876 611.9666 347.90314Q611.9666 348.325 612.2166 348.575Q612.48224 348.8094 612.951 348.8094Q613.3416 348.8094 613.6541 348.6219Q613.98224 348.41876 614.3416 348.0125L614.3416 346.90314ZM619.73224 349.45L619.0291 351.3875Q618.99786 351.48126 618.85724 351.52814Q618.7166 351.59064 618.41974 351.59064Q618.2635 351.59064 618.16974 351.575Q618.076 351.5594 618.0291 351.5125Q617.98224 351.48126 617.9666 351.41876Q617.9666 351.3719 617.99786 351.27814L618.73224 349.45Q618.66974 349.41876 618.62286 349.3719Q618.576 349.325 618.56036 349.2625L616.68536 344.21564Q616.6385 344.10626 616.6385 344.04376Q616.6385 343.96564 616.68536 343.91876Q616.73224 343.8719 616.826 343.85626Q616.93536 343.84064 617.12286 343.84064Q617.29474 343.84064 617.3885 343.85626Q617.49786 343.8719 617.54474 343.90314Q617.60724 343.91876 617.62286 343.96564Q617.6541 343.9969 617.68536 344.075L619.201 348.3094L619.2166 348.3094L620.66974 344.0594Q620.701 343.9344 620.74786 343.90314Q620.79474 343.8719 620.8885 343.85626Q620.99786 343.84064 621.18536 343.84064Q621.35724 343.84064 621.451 343.85626Q621.56036 343.8719 621.60724 343.91876Q621.66974 343.96564 621.66974 344.04376Q621.66974 344.10626 621.62286 344.2L619.73224 349.45Z" fill-rule="nonzero"/><path fill="#000000" d="M685.7312 347.325Q685.7312 347.85626 685.5281 348.27814Q685.3406 348.6844 684.9812 348.98126Q684.63745 349.2625 684.1687 349.41876Q683.69995 349.5594 683.1531 349.5594Q682.7781 349.5594 682.44995 349.4969Q682.1218 349.4344 681.8718 349.34064Q681.6218 349.2469 681.4343 349.15314Q681.26245 349.04376 681.19995 348.98126Q681.13745 348.90314 681.1062 348.79376Q681.07495 348.6844 681.07495 348.5125Q681.07495 348.3719 681.07495 348.29376Q681.0906 348.2 681.1062 348.15314Q681.13745 348.10626 681.1687 348.09064Q681.2156 348.0594 681.26245 348.0594Q681.3406 348.0594 681.4812 348.16876Q681.63745 348.2625 681.8718 348.3875Q682.1062 348.4969 682.4343 348.60626Q682.76245 348.7 683.19995 348.7Q683.5281 348.7 683.7937 348.6219Q684.07495 348.52814 684.26245 348.3719Q684.4656 348.2 684.57495 347.96564Q684.6843 347.73126 684.6843 347.4344Q684.6843 347.10626 684.5281 346.8875Q684.38745 346.65314 684.13745 346.48126Q683.9031 346.3094 683.5906 346.16876Q683.2937 346.02814 682.9656 345.8719Q682.6531 345.71564 682.3406 345.54376Q682.0437 345.35626 681.7937 345.1219Q681.5593 344.8719 681.4031 344.54376Q681.26245 344.2 681.26245 343.7469Q681.26245 343.2625 681.4343 342.90314Q681.6062 342.52814 681.9031 342.27814Q682.2156 342.0125 682.63745 341.8875Q683.07495 341.7625 683.5593 341.7625Q683.8093 341.7625 684.0593 341.8094Q684.32495 341.84064 684.5437 341.91876Q684.7781 341.9969 684.94995 342.09064Q685.1218 342.16876 685.1687 342.23126Q685.2312 342.27814 685.2468 342.3094Q685.2781 342.34064 685.2781 342.40314Q685.2937 342.45 685.2937 342.52814Q685.3093 342.59064 685.3093 342.7Q685.3093 342.8094 685.2937 342.8875Q685.2937 342.96564 685.26245 343.02814Q685.2468 343.075 685.2156 343.10626Q685.1843 343.1375 685.1531 343.1375Q685.0906 343.1375 684.94995 343.0594Q684.8093 342.96564 684.6062 342.8719Q684.4031 342.7625 684.13745 342.6844Q683.8718 342.59064 683.5281 342.59064Q683.2156 342.59064 682.9812 342.6844Q682.7468 342.7625 682.5906 342.90314Q682.4343 343.04376 682.3562 343.2469Q682.2781 343.4344 682.2781 343.65314Q682.2781 343.96564 682.4187 344.2Q682.57495 344.41876 682.8093 344.60626Q683.0593 344.77814 683.3718 344.91876Q683.6843 345.0594 683.9968 345.21564Q684.32495 345.3719 684.63745 345.54376Q684.94995 345.71564 685.1843 345.96564Q685.4343 346.21564 685.57495 346.54376Q685.7312 346.8719 685.7312 347.325ZM692.07495 349.3094Q692.07495 349.35626 692.0437 349.3875Q692.0281 349.41876 691.9656 349.45Q691.9187 349.46564 691.82495 349.46564Q691.7468 349.48126 691.6218 349.48126Q691.4968 349.48126 691.4031 349.46564Q691.32495 349.46564 691.2781 349.45Q691.2312 349.41876 691.19995 349.3875Q691.1843 349.35626 691.1843 349.3094L691.1843 348.60626Q690.7312 349.10626 690.2937 349.34064Q689.8562 349.5594 689.4031 349.5594Q688.88745 349.5594 688.51245 349.3875Q688.1531 349.21564 687.9343 348.91876Q687.7156 348.60626 687.6218 348.21564Q687.5281 347.8094 687.5281 347.23126L687.5281 344.02814Q687.5281 343.98126 687.5437 343.95Q687.5593 343.91876 687.6218 343.90314Q687.6843 343.8719 687.7781 343.85626Q687.8718 343.84064 688.01245 343.84064Q688.1531 343.84064 688.2468 343.85626Q688.3406 343.8719 688.38745 343.90314Q688.44995 343.91876 688.4656 343.95Q688.4968 343.98126 688.4968 344.02814L688.4968 347.10626Q688.4968 347.5594 688.5593 347.84064Q688.6218 348.1219 688.76245 348.325Q688.9031 348.5125 689.1062 348.6219Q689.32495 348.73126 689.6062 348.73126Q689.9656 348.73126 690.32495 348.48126Q690.6843 348.21564 691.0906 347.71564L691.0906 344.02814Q691.0906 343.98126 691.1062 343.95Q691.13745 343.91876 691.1843 343.90314Q691.2468 343.8719 691.3406 343.85626Q691.4343 343.84064 691.57495 343.84064Q691.7156 343.84064 691.8093 343.85626Q691.9031 343.8719 691.94995 343.90314Q692.01245 343.91876 692.0437 343.95Q692.07495 343.98126 692.07495 344.02814L692.07495 349.3094ZM698.0906 349.3094Q698.0906 349.35626 698.0593 349.3875Q698.0437 349.41876 697.9812 349.45Q697.9343 349.46564 697.8406 349.46564Q697.7468 349.48126 697.6062 349.48126Q697.4656 349.48126 697.3718 349.46564Q697.2781 349.46564 697.2156 349.45Q697.1687 349.41876 697.13745 349.3875Q697.1218 349.35626 697.1218 349.3094L697.1218 346.21564Q697.1218 345.7625 697.0437 345.4969Q696.9812 345.21564 696.8406 345.0125Q696.7156 344.8094 696.4968 344.71564Q696.2937 344.60626 696.01245 344.60626Q695.63745 344.60626 695.2781 344.8719Q694.9187 345.1219 694.51245 345.6219L694.51245 349.3094Q694.51245 349.35626 694.4812 349.3875Q694.4656 349.41876 694.4187 349.45Q694.3718 349.46564 694.2781 349.46564Q694.1843 349.48126 694.0281 349.48126Q693.88745 349.48126 693.7937 349.46564Q693.69995 349.46564 693.63745 349.45Q693.5906 349.41876 693.5593 349.3875Q693.5437 349.35626 693.5437 349.3094L693.5437 344.02814Q693.5437 343.98126 693.5593 343.95Q693.5906 343.91876 693.63745 343.90314Q693.6843 343.8719 693.76245 343.85626Q693.8562 343.84064 693.9968 343.84064Q694.1218 343.84064 694.19995 343.85626Q694.2937 343.8719 694.3406 343.90314Q694.38745 343.91876 694.4031 343.95Q694.4187 343.98126 694.4187 344.02814L694.4187 344.73126Q694.8718 344.23126 695.3093 343.9969Q695.7468 343.7625 696.19995 343.7625Q696.7312 343.7625 697.0906 343.95Q697.44995 344.1219 697.6687 344.41876Q697.9031 344.71564 697.9968 345.1219Q698.0906 345.52814 698.0906 346.09064L698.0906 349.3094ZM704.07495 349.3094Q704.07495 349.35626 704.0437 349.3875Q704.0281 349.41876 703.9812 349.45Q703.9343 349.46564 703.8406 349.46564Q703.76245 349.48126 703.6531 349.48126Q703.5281 349.48126 703.4343 349.46564Q703.3562 349.46564 703.2937 349.45Q703.2468 349.41876 703.2156 349.3875Q703.19995 349.35626 703.19995 349.3094L703.19995 348.60626Q702.7937 349.0594 702.3406 349.3094Q701.88745 349.5594 701.3562 349.5594Q700.7781 349.5594 700.3718 349.34064Q699.9656 349.10626 699.69995 348.73126Q699.44995 348.34064 699.32495 347.825Q699.2156 347.3094 699.2156 346.73126Q699.2156 346.04376 699.3562 345.4969Q699.51245 344.95 699.7937 344.575Q700.0906 344.1844 700.51245 343.98126Q700.9343 343.7625 701.4968 343.7625Q701.94995 343.7625 702.32495 343.96564Q702.7156 344.16876 703.0906 344.5594L703.0906 341.4969Q703.0906 341.45 703.1062 341.41876Q703.13745 341.3875 703.1843 341.3719Q703.2468 341.34064 703.3406 341.325Q703.4343 341.3094 703.57495 341.3094Q703.7156 341.3094 703.8093 341.325Q703.9031 341.34064 703.94995 341.3719Q704.01245 341.3875 704.0437 341.41876Q704.07495 341.45 704.07495 341.4969L704.07495 349.3094ZM703.0906 345.59064Q702.69995 345.10626 702.32495 344.85626Q701.9656 344.59064 701.57495 344.59064Q701.19995 344.59064 700.9343 344.77814Q700.6843 344.95 700.5281 345.2469Q700.3718 345.52814 700.2937 345.8875Q700.2156 346.2469 700.2156 346.6219Q700.2156 347.02814 700.2781 347.40314Q700.3406 347.77814 700.4968 348.075Q700.6531 348.3719 700.9031 348.5594Q701.1531 348.73126 701.5281 348.73126Q701.7312 348.73126 701.9031 348.6844Q702.07495 348.6219 702.26245 348.5125Q702.44995 348.3875 702.6531 348.2Q702.8718 347.9969 703.0906 347.7L703.0906 345.59064ZM709.5281 349.3094Q709.5281 349.3719 709.4812 349.41876Q709.4343 349.45 709.3406 349.46564Q709.26245 349.48126 709.1062 349.48126Q708.94995 349.48126 708.8562 349.46564Q708.7781 349.45 708.7312 349.41876Q708.6843 349.3719 708.6843 349.3094L708.6843 348.77814Q708.3406 349.15314 707.9187 349.35626Q707.4968 349.5594 707.0281 349.5594Q706.6062 349.5594 706.26245 349.45Q705.9343 349.34064 705.6843 349.1375Q705.44995 348.9344 705.32495 348.6375Q705.19995 348.34064 705.19995 347.95Q705.19995 347.5125 705.3718 347.1844Q705.5593 346.85626 705.88745 346.6375Q706.2312 346.41876 706.7156 346.3094Q707.2156 346.2 707.8406 346.2L708.5593 346.2L708.5593 345.79376Q708.5593 345.48126 708.4968 345.2469Q708.4343 345.0125 708.2937 344.8719Q708.1531 344.71564 707.9187 344.6375Q707.6843 344.54376 707.3562 344.54376Q706.9968 344.54376 706.7156 344.6375Q706.4343 344.71564 706.2156 344.825Q705.9968 344.91876 705.8562 345.0125Q705.7156 345.09064 705.63745 345.09064Q705.5906 345.09064 705.5593 345.075Q705.5281 345.04376 705.4968 344.9969Q705.4812 344.95 705.4656 344.8875Q705.44995 344.8094 705.44995 344.71564Q705.44995 344.575 705.4656 344.4969Q705.4968 344.40314 705.57495 344.325Q705.6531 344.2469 705.8406 344.15314Q706.0437 344.04376 706.2937 343.96564Q706.5437 343.8719 706.8406 343.825Q707.13745 343.7625 707.44995 343.7625Q708.01245 343.7625 708.4031 343.90314Q708.8093 344.02814 709.0437 344.27814Q709.2937 344.52814 709.4031 344.90314Q709.5281 345.2625 709.5281 345.7469L709.5281 349.3094ZM708.5593 346.90314L707.7312 346.90314Q707.3406 346.90314 707.0437 346.96564Q706.7468 347.02814 706.5593 347.16876Q706.3718 347.29376 706.2781 347.48126Q706.1843 347.66876 706.1843 347.90314Q706.1843 348.325 706.4343 348.575Q706.69995 348.8094 707.1687 348.8094Q707.5593 348.8094 707.8718 348.6219Q708.19995 348.41876 708.5593 348.0125L708.5593 346.90314ZM713.94995 349.45L713.2468 351.3875Q713.2156 351.48126 713.07495 351.52814Q712.9343 351.59064 712.63745 351.59064Q712.4812 351.59064 712.38745 351.575Q712.2937 351.5594 712.2468 351.5125Q712.19995 351.48126 712.1843 351.41876Q712.1843 351.3719 712.2156 351.27814L712.94995 349.45Q712.88745 349.41876 712.8406 349.3719Q712.7937 349.325 712.7781 349.2625L710.9031 344.21564Q710.8562 344.10626 710.8562 344.04376Q710.8562 343.96564 710.9031 343.91876Q710.94995 343.8719 711.0437 343.85626Q711.1531 343.84064 711.3406 343.84064Q711.51245 343.84064 711.6062 343.85626Q711.7156 343.8719 711.76245 343.90314Q711.82495 343.91876 711.8406 343.96564Q711.8718 343.9969 711.9031 344.075L713.4187 348.3094L713.4343 348.3094L714.88745 344.0594Q714.9187 343.9344 714.9656 343.90314Q715.01245 343.8719 715.1062 343.85626Q715.2156 343.84064 715.4031 343.84064Q715.57495 343.84064 715.6687 343.85626Q715.7781 343.8719 715.82495 343.91876Q715.88745 343.96564 715.88745 344.04376Q715.88745 344.10626 715.8406 344.2L713.94995 349.45Z" fill-rule="nonzero"/></svg>